<?xml version="1.0" encoding="UTF-8"?>
<svg xmlns="http://www.w3.org/2000/svg" width="90" height="90" viewBox="0 0 90 90" fill="none">
  <g id="Ebene_1" clip-path="url(#clip0_103_27)">
    <path id="Vector" d="M0 48.3441C3.55027 48.6135 6.98069 48.5686 10.2913 49.197C15.025 50.0948 19.8336 51.0374 24.2976 52.7581C38.7833 58.3541 45.5393 70.0549 43.6668 85.4663C43.1275 89.8803 43.1275 89.9102 38.6335 89.985C23.7134 90.2394 12.8379 83.7157 6.05193 70.4589C2.56158 63.6359 0.943742 56.2743 0 48.3292L0 48.3441Z" fill="#304B79"></path>
    <path id="Vector_2" d="M90.0001 45.9501C89.7754 49.3167 89.6855 52.4589 89.326 55.5711C88.517 62.6783 86.7045 69.5012 83.0044 75.7107C77.7764 84.4638 70.0167 89.192 59.8153 89.6559C56.7294 89.7905 53.6286 89.3716 50.5277 89.2668C49.1196 89.2219 48.5953 88.5636 48.4904 87.187C47.3819 72.8678 52.3103 61.4514 64.7437 53.7307C72.3087 49.0324 80.7724 47.0574 90.0001 45.9352V45.9501Z" fill="#304B79"></path>
    <path id="Vector_3" d="M46.5131 57.8753C40.3413 57.6958 35.3829 55.197 31.6529 50.2444C30.3496 48.4938 29.3759 46.5935 28.8216 44.4838C28.5071 43.3017 28.2973 42.1047 28.2224 40.8778C28.1925 40.3242 28.1326 39.7706 28.1326 39.217C28.1326 36.8529 28.4322 34.5337 28.9415 32.2294C29.9302 27.8604 31.548 23.7157 33.4804 19.6908C36.087 14.2594 39.2028 9.11222 42.5733 4.11472C43.4422 2.81297 44.3559 1.54115 45.2398 0.26933C45.4645 -0.0448845 45.6143 -0.0598471 45.8689 0.239405C48.2358 3.09726 50.4528 6.08978 52.535 9.15711C55.0667 12.8828 57.4035 16.7431 59.4109 20.7681C60.9987 23.9551 62.3769 27.217 63.3806 30.6284C63.8749 32.3342 64.2794 34.0549 64.5191 35.8055C64.7288 37.3317 64.8936 38.8579 64.8037 40.399C64.5939 44.394 63.2757 47.985 60.7291 51.0823C58.0177 54.404 54.5424 56.5137 50.3629 57.4564C49.0896 57.7407 47.8013 57.8753 46.4831 57.8753H46.5131ZM45.5993 0.73317C45.5244 0.837909 45.4645 0.912722 45.4195 0.972572C44.2061 2.76808 42.9478 4.53367 41.7644 6.34414C38.6635 11.0574 35.8323 15.9202 33.4655 21.0374C31.7278 24.808 30.2747 28.6833 29.4059 32.7531C29.0613 34.384 28.8067 36.0299 28.7467 37.7057C28.7018 38.6933 28.7168 39.6808 28.7917 40.6683C28.8666 41.6259 29.0014 42.5985 29.1961 43.5411C29.6755 45.8604 30.6792 47.9551 32.0873 49.8554C35.4578 54.3741 39.9518 56.8579 45.5693 57.2768C47.307 57.4115 49.0447 57.2319 50.7524 56.798C56.1302 55.3766 60.07 52.2045 62.5567 47.2369C63.7251 44.9027 64.2494 42.419 64.2943 39.8155C64.2943 39.1721 64.2644 38.5287 64.2045 37.8853C64.0996 36.8229 63.9947 35.7606 63.815 34.7132C63.4405 32.5137 62.8113 30.3741 62.0623 28.2643C60.6991 24.419 58.9165 20.7681 56.9242 17.207C53.9581 11.9402 50.5577 6.97257 46.8276 2.22943C46.4382 1.73566 46.0337 1.2419 45.6143 0.718208L45.5993 0.73317Z" fill="#DBB03D"></path>
    <path id="Vector_4" d="M62.9161 39.4264C62.9611 47.1022 57.5833 53.6708 50.1532 55.3765C48.6552 55.7207 47.1422 55.8554 45.6142 55.7506C41.6145 55.4962 38.1242 54 35.2181 51.2319C33.3156 49.4214 31.8476 47.3117 30.9937 44.813C30.5892 43.6309 30.3196 42.4189 30.1998 41.1771C30.1398 40.5037 30.0649 39.8304 30.0649 39.1571C30.0649 36.8229 30.3795 34.5187 30.9188 32.2444C31.7727 28.7282 33.0759 25.3766 34.6039 22.0997C36.6262 17.7756 39.023 13.6758 41.6445 9.68079C42.8429 7.87032 44.0862 6.08977 45.3146 4.29426C45.5543 3.93516 45.7191 3.93516 45.9887 4.26434C50.1082 9.32169 53.7933 14.6783 56.9092 20.409C58.5719 23.4464 60.01 26.5885 61.1185 29.8653C61.7627 31.7805 62.287 33.7257 62.5716 35.7307C62.7364 36.9426 62.9012 39.3965 62.8712 39.4115L62.9161 39.4264ZM34.7986 37.7805C34.8885 38.6035 34.9334 39.4414 35.0533 40.2494C35.3529 42.0598 36.0719 43.7057 37.2104 45.1421C40.2064 48.9127 44.1012 50.5287 48.8499 49.6608C52.9844 48.9127 55.9055 46.4439 57.5683 42.5835C58.3622 40.7431 58.5869 38.783 58.3772 36.778C58.2574 35.596 58.0626 34.4439 57.778 33.2918C57.0589 30.4788 55.9055 27.8304 54.5573 25.2569C52.6698 21.6509 50.4228 18.2544 47.9511 15.0224C47.4418 14.3491 46.9175 13.7057 46.3782 13.0474C46.1685 12.7781 45.9438 12.793 45.749 13.0474C45.7191 13.0923 45.6891 13.1372 45.6591 13.182C43.547 16.1596 41.5546 19.212 39.802 22.414C38.259 25.2269 36.9108 28.1297 35.9521 31.212C35.293 33.3367 34.8585 35.5062 34.7986 37.7506V37.7805ZM45.5693 52.6683C45.3895 52.6683 45.2397 52.8179 45.2397 52.9975C45.2397 53.1621 45.4045 53.3416 45.5842 53.3267C45.764 53.3117 45.8838 53.207 45.8988 53.0125C45.8988 52.8329 45.749 52.6833 45.5693 52.6833V52.6683ZM32.9261 41.1771C32.9261 40.9975 32.7763 40.8479 32.5966 40.8628C32.4018 40.8628 32.297 40.9825 32.282 41.1771C32.282 41.3566 32.4318 41.5062 32.5966 41.5212C32.7763 41.5212 32.9261 41.3716 32.9261 41.192V41.1771ZM52.9694 17.581C52.7896 17.581 52.6398 17.7456 52.6548 17.9252C52.6548 18.0898 52.8196 18.2394 52.9844 18.2394C53.1492 18.2394 53.3139 18.0748 53.3139 17.9102C53.3139 17.7307 53.1492 17.581 52.9694 17.596V17.581ZM60.6092 36.8529C60.789 36.8529 60.9388 36.7032 60.9388 36.5237C60.9388 36.3441 60.789 36.1945 60.6092 36.1945C60.4444 36.1945 60.2946 36.3441 60.2946 36.5087C60.2946 36.6883 60.4444 36.8529 60.6092 36.8529ZM55.0666 21.7257C55.2314 21.7257 55.3962 21.5461 55.3812 21.3815C55.3812 21.202 55.2014 21.0673 55.0366 21.0673C54.8719 21.0673 54.737 21.217 54.737 21.3965C54.737 21.5761 54.9018 21.7257 55.0666 21.7257ZM52.1605 52.2344C52.3402 52.2344 52.505 52.0997 52.505 51.9352C52.505 51.7706 52.3552 51.606 52.1904 51.591C52.0257 51.591 51.8609 51.7406 51.8609 51.9202C51.8609 52.0848 51.9957 52.2344 52.1755 52.2494L52.1605 52.2344ZM40.4012 51.9352C40.5659 51.9352 40.7457 51.7706 40.7157 51.591C40.7008 51.4115 40.5809 51.2918 40.3862 51.2768C40.1914 51.2768 40.0566 51.4115 40.0566 51.606C40.0566 51.7855 40.2064 51.9352 40.3862 51.9352H40.4012ZM51.5313 15.3217C51.3665 15.3217 51.2018 15.4713 51.1868 15.6509C51.1868 15.8155 51.3366 15.98 51.5163 15.98C51.6961 15.98 51.8309 15.8454 51.8459 15.6658C51.8459 15.4863 51.7111 15.3217 51.5313 15.3217ZM34.4691 29.2668C34.4691 29.0873 34.3342 28.9377 34.1545 28.9227C33.9747 28.9227 33.8249 29.0723 33.8249 29.2519C33.8249 29.4314 33.9747 29.581 34.1545 29.5661C34.3342 29.5661 34.4691 29.4314 34.4691 29.2519V29.2668ZM54.7221 20.2294C54.7221 20.0499 54.5723 19.9002 54.3925 19.9002C54.1978 19.9002 54.0929 20.0199 54.0629 20.1995C54.048 20.3641 54.2127 20.5287 54.3775 20.5436C54.5573 20.5436 54.7071 20.394 54.7071 20.2145L54.7221 20.2294ZM56.3399 23.4613C56.1601 23.4613 56.0103 23.611 56.0103 23.7905C56.0103 23.9701 56.1452 24.1047 56.3249 24.1047C56.5197 24.1047 56.6695 23.9701 56.6695 23.7905C56.6695 23.611 56.5197 23.4613 56.3399 23.4613ZM33.3755 33.1721C33.3755 33.0075 33.2557 32.8429 33.0909 32.8279C32.9111 32.813 32.7464 32.9327 32.7314 33.1122C32.7164 33.2918 32.8512 33.4564 33.031 33.4713C33.2107 33.4713 33.3755 33.3516 33.3905 33.1721H33.3755ZM50.7524 14.1995C50.5726 14.1995 50.4078 14.3641 50.4228 14.5287C50.4378 14.7232 50.5576 14.8279 50.7374 14.8429C50.9022 14.8579 51.0669 14.6933 51.0669 14.5137C51.0669 14.3342 50.9321 14.1845 50.7374 14.1845L50.7524 14.1995ZM32.8962 35.8055C32.8962 35.6259 32.7314 35.4763 32.5516 35.4763C32.3868 35.4763 32.252 35.6259 32.237 35.8055C32.237 36 32.3719 36.1347 32.5516 36.1347C32.7314 36.1347 32.8812 35.985 32.8812 35.8055H32.8962ZM60.1149 43.5262C60.2946 43.5262 60.4444 43.3766 60.4295 43.197C60.4295 43.0025 60.2946 42.8978 60.1149 42.8828C59.9501 42.8678 59.7853 43.0324 59.7853 43.212C59.7853 43.3915 59.9201 43.5411 60.1149 43.5411V43.5262ZM34.7836 46.2045C34.7836 46.0249 34.6189 45.8753 34.4541 45.8903C34.2743 45.8903 34.1395 46.0549 34.1395 46.2344C34.1395 46.399 34.2893 46.5486 34.4541 46.5486C34.6339 46.5486 34.7836 46.399 34.7687 46.2194L34.7836 46.2045ZM58.6618 46.8329C58.6618 46.6534 58.512 46.5037 58.3323 46.5037C58.1675 46.5037 58.0027 46.6683 58.0027 46.8329C58.0027 46.9975 58.1375 47.1471 58.3173 47.1471C58.497 47.1471 58.6468 47.0125 58.6618 46.8329ZM57.5233 48.2244C57.7031 48.2244 57.8379 48.1047 57.8529 47.9252C57.8529 47.7307 57.733 47.581 57.5533 47.581C57.3735 47.581 57.2087 47.7157 57.2087 47.8953C57.2087 48.0748 57.3436 48.2244 57.5233 48.2394V48.2244ZM35.3978 26.7232C35.3978 26.5287 35.263 26.379 35.0833 26.394C34.8885 26.394 34.7837 26.4987 34.7537 26.6933C34.7387 26.8728 34.8885 27.0224 35.0683 27.0374C35.248 27.0374 35.3978 26.9027 35.3978 26.7232ZM60.4444 41.5661C60.2647 41.5661 60.1149 41.7157 60.1149 41.8953C60.1149 42.0748 60.2797 42.2394 60.4444 42.2244C60.6242 42.2095 60.744 42.1047 60.759 41.9102C60.759 41.7157 60.6242 41.581 60.4444 41.581V41.5661ZM32.7014 38.4987C32.7014 38.3192 32.5516 38.1546 32.3719 38.1696C32.1921 38.1696 32.0723 38.2893 32.0573 38.4838C32.0573 38.6633 32.1921 38.813 32.3719 38.8279C32.5516 38.8279 32.7014 38.6933 32.7014 38.4987ZM57.2387 24.9726C57.2387 24.793 57.0889 24.6583 56.8942 24.6733C56.7294 24.6733 56.5796 24.8229 56.5796 24.9875C56.5796 25.1671 56.7444 25.3167 56.9092 25.3167C57.0889 25.3167 57.2387 25.1671 57.2237 24.9875L57.2387 24.9726ZM60.3396 40.5486C60.3396 40.7431 60.4744 40.8928 60.6542 40.8778C60.8339 40.8778 60.9538 40.7581 60.9687 40.5636C60.9687 40.384 60.8339 40.2344 60.6542 40.2194C60.4744 40.2194 60.3246 40.3691 60.3246 40.5486H60.3396ZM59.8153 32.8578C59.995 32.8578 60.1448 32.7082 60.1448 32.5287C60.1448 32.3491 59.9801 32.1995 59.8153 32.1995C59.6355 32.1995 59.5007 32.3641 59.5157 32.5436C59.5157 32.7232 59.6505 32.8579 59.8303 32.8429L59.8153 32.8578ZM34.9035 27.98C34.9035 27.8005 34.7537 27.6509 34.5889 27.6359C34.4241 27.6359 34.2594 27.7855 34.2594 27.9651C34.2594 28.1446 34.4091 28.2943 34.5889 28.2943C34.7537 28.2943 34.9035 28.1446 34.9035 27.98ZM35.2181 47.6259C35.3829 47.6259 35.5476 47.4763 35.5626 47.2968C35.5626 47.1322 35.4278 46.9825 35.248 46.9825C35.0533 46.9825 34.9185 47.0873 34.9035 47.2818C34.9035 47.4613 35.0383 47.611 35.2181 47.6259ZM55.5909 50.1247C55.7557 50.1247 55.9205 49.9751 55.9205 49.7955C55.9205 49.6309 55.7856 49.4813 55.6059 49.4813C55.4111 49.4813 55.2763 49.601 55.2613 49.7805C55.2613 49.9601 55.3962 50.1097 55.5759 50.1247H55.5909ZM53.3589 50.9925C53.1641 50.9925 53.0293 51.1272 53.0293 51.3067C53.0293 51.4863 53.1941 51.6359 53.3589 51.6359C53.5536 51.6359 53.6585 51.5162 53.6735 51.3217C53.6735 51.1272 53.5536 50.9925 53.3589 50.9925ZM50.8722 52.6833C51.052 52.6833 51.2018 52.5337 51.2018 52.3541C51.2018 52.1746 51.037 52.0249 50.8572 52.0399C50.6775 52.0399 50.5426 52.2045 50.5426 52.384C50.5426 52.5636 50.6924 52.6833 50.8722 52.6833ZM49.8835 52.7132C49.8835 52.5337 49.7487 52.384 49.5689 52.384C49.4042 52.384 49.2544 52.5187 49.2394 52.6833C49.2394 52.8628 49.3592 53.0274 49.539 53.0274C49.7187 53.0274 49.8685 52.8928 49.8835 52.7132ZM47.2021 53.0274C47.2021 52.8479 47.0673 52.6982 46.8875 52.6833C46.7078 52.6833 46.558 52.8329 46.558 53.0125C46.558 53.207 46.6628 53.3117 46.8576 53.3267C47.0523 53.3416 47.1871 53.207 47.2021 53.0274ZM35.5626 25.1222C35.3829 25.1222 35.2331 25.2868 35.248 25.4663C35.248 25.6459 35.3978 25.7805 35.5926 25.7656C35.7873 25.7656 35.8922 25.6459 35.8922 25.4514C35.8922 25.2569 35.7574 25.1222 35.5626 25.1222ZM42.3635 13.616C42.3635 13.4214 42.2287 13.2868 42.034 13.2868C41.8542 13.2868 41.7044 13.4364 41.7044 13.616C41.7044 13.7805 41.8542 13.9302 42.019 13.9302C42.1988 13.9302 42.3486 13.7955 42.3486 13.616H42.3635ZM55.9954 22.5636C55.9954 22.384 55.8456 22.2344 55.6658 22.2344C55.4711 22.2344 55.3662 22.3541 55.3362 22.5337C55.3213 22.6983 55.486 22.8628 55.6508 22.8778C55.8306 22.8778 55.9804 22.7431 55.9804 22.5636H55.9954ZM53.6735 18.7182C53.4937 18.7182 53.3439 18.8529 53.3439 19.0324C53.3439 19.212 53.4488 19.3466 53.6435 19.3466C53.8233 19.3466 53.988 19.212 53.988 19.0324C53.988 18.8529 53.8532 18.7032 53.6735 18.7032V18.7182ZM52.535 16.7431C52.535 16.5636 52.4002 16.414 52.2204 16.414C52.0556 16.414 51.8908 16.5786 51.8908 16.7431C51.8908 16.9377 52.0107 17.0424 52.2054 17.0574C52.3852 17.0574 52.535 16.9377 52.535 16.7431ZM33.1658 42.4788C33.1658 42.2843 33.031 42.1646 32.8362 42.1646C32.6415 42.1646 32.5366 42.2843 32.5217 42.4788C32.5217 42.6583 32.6715 42.808 32.8512 42.808C33.031 42.808 33.1658 42.6583 33.1658 42.4788ZM33.2557 43.4514C33.0759 43.4514 32.9261 43.586 32.9261 43.7805C32.9261 43.9601 33.0609 44.0948 33.2407 44.0948C33.4205 44.0948 33.5703 43.9601 33.5852 43.7805C33.5852 43.601 33.4354 43.4514 33.2557 43.4514ZM40.2963 15.9052C40.2963 16.0848 40.4461 16.2494 40.6109 16.2494C40.7757 16.2494 40.9404 16.0848 40.9404 15.9202C40.9404 15.7257 40.8206 15.6209 40.6408 15.606C40.4611 15.591 40.3113 15.7257 40.3113 15.9202L40.2963 15.9052ZM59.0213 45.98C59.2011 45.98 59.3509 45.8454 59.3359 45.6509C59.3359 45.4564 59.2161 45.3516 59.0213 45.3367C58.8416 45.3367 58.6918 45.4713 58.6918 45.6509C58.6918 45.8304 58.8416 45.98 59.0213 45.98ZM33.6601 31.8254C33.6601 31.6459 33.5253 31.4963 33.3456 31.4963C33.1808 31.4963 33.016 31.6459 33.016 31.8254C33.016 31.99 33.1508 32.1396 33.3306 32.1396C33.5253 32.1396 33.6751 32.0199 33.6751 31.8404L33.6601 31.8254ZM60.4145 35.4913C60.5942 35.4913 60.744 35.3267 60.7291 35.1471C60.7141 34.9526 60.5942 34.8479 60.3995 34.8479C60.2197 34.8479 60.0699 35.0125 60.0699 35.1771C60.0699 35.3566 60.2347 35.5062 60.4145 35.4913ZM46.1835 8.06483C46.1835 7.90025 46.0337 7.73566 45.8689 7.7207C45.7041 7.7207 45.5393 7.87032 45.5393 8.04987C45.5393 8.21446 45.6741 8.36409 45.8389 8.37905C46.0187 8.37905 46.1835 8.24439 46.1835 8.06483ZM58.8715 28.7132C58.8715 28.5337 58.7217 28.384 58.542 28.399C58.3472 28.399 58.2424 28.5037 58.2274 28.7132C58.2274 28.9077 58.3622 29.0574 58.542 29.0574C58.7217 29.0574 58.8715 28.9077 58.8715 28.7282V28.7132ZM36.4165 48.3591C36.4165 48.1795 36.2517 48.0449 36.0719 48.0449C35.8922 48.0449 35.7723 48.1795 35.7574 48.3591C35.7574 48.5386 35.8922 48.6883 36.0869 48.6883C36.2667 48.6883 36.4165 48.5386 36.4165 48.3591ZM56.9391 48.8978C56.9391 48.7182 56.7743 48.5686 56.5946 48.5835C56.4148 48.5835 56.28 48.7481 56.295 48.9277C56.295 49.1222 56.4298 49.2269 56.6096 49.2269C56.7893 49.2269 56.9391 49.0773 56.9391 48.8978ZM37.0307 49.6459C37.2104 49.6459 37.3602 49.5112 37.3752 49.3317C37.3752 49.1671 37.2254 49.0025 37.0456 49.0025C36.8809 49.0025 36.7311 49.1371 36.7311 49.3167C36.7311 49.5112 36.8509 49.6608 37.0307 49.6608V49.6459ZM59.0213 29.6409C58.8566 29.6409 58.7068 29.7606 58.6918 29.9401C58.6918 30.1347 58.8116 30.2843 58.9764 30.2992C59.1412 30.2992 59.3209 30.1646 59.3209 29.985C59.3209 29.8055 59.1861 29.6559 59.0064 29.6409H59.0213ZM38.0493 50.5137C38.2141 50.5287 38.3938 50.394 38.4088 50.2145C38.4238 50.0499 38.304 49.9002 38.1242 49.8703C37.9295 49.8404 37.7797 49.9601 37.7647 50.1396C37.7497 50.3342 37.8695 50.4838 38.0493 50.4987V50.5137ZM39.1878 50.6334C39.023 50.6334 38.8732 50.783 38.8732 50.9476C38.8732 51.1272 39.038 51.2918 39.2177 51.2768C39.4125 51.2618 39.5173 51.1421 39.5173 50.9476C39.5173 50.7681 39.3675 50.6334 39.1878 50.6334ZM33.7051 30.2095C33.5253 30.2095 33.3755 30.3741 33.3905 30.5536C33.3905 30.7182 33.5703 30.8828 33.735 30.8678C33.9148 30.8678 34.0496 30.7032 34.0346 30.5087C34.0346 30.3292 33.8848 30.2095 33.7051 30.2095ZM57.1638 26.1845C57.1488 26.3491 57.2687 26.5137 57.4335 26.5436C57.6132 26.5736 57.793 26.4239 57.808 26.2444C57.8229 26.0798 57.6881 25.9302 57.5233 25.9002C57.3436 25.8853 57.1788 26.005 57.1638 26.1845ZM44.296 9.93516C44.1162 9.93516 43.9814 10.0848 43.9814 10.2793C43.9814 10.4588 44.1162 10.5935 44.296 10.5935C44.4757 10.5935 44.6255 10.4439 44.6255 10.2643C44.6255 10.0848 44.4607 9.93516 44.296 9.93516ZM48.3705 11.5511C48.5503 11.5511 48.6851 11.3865 48.6851 11.207C48.6851 11.0274 48.5353 10.8928 48.3406 10.9077C48.1458 10.9077 48.041 11.0274 48.041 11.2219C48.041 11.4015 48.1908 11.5511 48.3705 11.5511ZM43.532 11.7007C43.7117 11.7007 43.8615 11.5661 43.8615 11.3865C43.8615 11.207 43.7117 11.0574 43.532 11.0574C43.3372 11.0574 43.2324 11.1771 43.2174 11.3716C43.2174 11.5661 43.3372 11.7007 43.532 11.7007ZM48.5803 52.9526C48.5803 52.788 48.4305 52.6234 48.2657 52.6085C48.0859 52.6085 47.9361 52.7581 47.9361 52.9376C47.9361 53.1022 48.0709 53.2519 48.2507 53.2668C48.4305 53.2668 48.5952 53.1322 48.5952 52.9526H48.5803ZM54.8569 50.6185C54.8569 50.4389 54.7071 50.2893 54.5273 50.3042C54.3326 50.3042 54.2277 50.4239 54.2127 50.6185C54.2127 50.813 54.3476 50.9476 54.5273 50.9476C54.7071 50.9476 54.8569 50.798 54.8569 50.6185ZM43.1125 12.5087C43.1125 12.3142 42.9627 12.1945 42.783 12.1945C42.5882 12.1945 42.4684 12.3292 42.4834 12.5237C42.4834 12.7182 42.6182 12.8229 42.798 12.8229C42.9777 12.8229 43.1275 12.6733 43.1275 12.4938L43.1125 12.5087ZM34.1095 45.0374C34.1095 44.8578 33.9448 44.7082 33.78 44.7082C33.6002 44.7082 33.4654 44.8728 33.4654 45.0524C33.4654 45.2319 33.6152 45.3666 33.78 45.3516C33.9747 45.3516 34.1095 45.217 34.1095 45.0224V45.0374ZM49.9434 13.7357C50.1382 13.7357 50.273 13.601 50.273 13.4214C50.273 13.2419 50.1232 13.0923 49.9434 13.0923C49.7487 13.0923 49.6438 13.197 49.6289 13.4065C49.6289 13.601 49.7487 13.7357 49.9434 13.7357ZM60.4594 33.8753C60.4594 33.6958 60.3096 33.5461 60.1299 33.5461C59.9501 33.5461 59.8153 33.6808 59.8153 33.8753C59.8153 34.0698 59.9351 34.1746 60.1149 34.1746C60.3096 34.1746 60.4444 34.0399 60.4444 33.8603L60.4594 33.8753ZM32.7314 34.1596C32.5516 34.1596 32.4168 34.3092 32.4168 34.5037C32.4168 34.6833 32.5666 34.818 32.7613 34.803C32.9411 34.803 33.0609 34.6534 33.0609 34.4888C33.0609 34.3092 32.9111 34.1596 32.7314 34.1746V34.1596ZM41.6445 14.813C41.6445 14.6334 41.5097 14.4838 41.3299 14.4688C41.1502 14.4688 41.0004 14.6185 41.0004 14.798C41.0004 14.9925 41.1052 15.1122 41.3 15.1122C41.4947 15.1122 41.6295 14.9925 41.6445 14.813ZM39.9068 16.788C39.7271 16.788 39.5773 16.9526 39.5922 17.1172C39.5922 17.2968 39.742 17.4314 39.9368 17.4165C40.1315 17.4165 40.2364 17.2968 40.2364 17.1022C40.2364 16.9077 40.1016 16.7731 39.9218 16.7731L39.9068 16.788ZM39.5623 18.2992C39.5623 18.1197 39.4275 17.9701 39.2477 17.9701C39.0679 17.9701 38.9331 18.0898 38.9331 18.2693C38.9331 18.4638 39.053 18.5985 39.2327 18.6135C39.4125 18.6135 39.5623 18.4788 39.5773 18.2992H39.5623ZM32.7314 37.182C32.7314 36.9875 32.5966 36.8529 32.4018 36.8529C32.2071 36.8529 32.0723 36.9875 32.0872 37.182C32.0872 37.3466 32.237 37.4963 32.4018 37.4963C32.5966 37.4963 32.7314 37.3616 32.7314 37.182ZM38.5436 19.1521C38.3938 19.1521 38.274 19.2419 38.259 19.4514C38.259 19.6459 38.3789 19.7955 38.5586 19.7955C38.7384 19.7955 38.8882 19.6608 38.9032 19.4813C38.9032 19.3017 38.7683 19.1521 38.5436 19.1521ZM38.244 20.6633C38.244 20.4688 38.1092 20.3342 37.9145 20.3342C37.7347 20.3342 37.5849 20.4987 37.5999 20.6783C37.6149 20.8728 37.7197 20.9776 37.9145 20.9776C38.1092 20.9776 38.244 20.8579 38.244 20.6633ZM60.6991 38.2294C60.8938 38.2294 61.0287 38.1097 61.0287 37.9152C61.0287 37.7357 60.8938 37.586 60.6991 37.586C60.5343 37.586 60.3845 37.7357 60.3845 37.9002C60.3845 38.0798 60.5193 38.2294 60.6991 38.2294ZM36.1319 23.9701C35.9521 23.9701 35.8173 24.1197 35.8173 24.2992C35.8173 24.4938 35.9521 24.6135 36.1468 24.6135C36.3266 24.6135 36.4464 24.4788 36.4464 24.2992C36.4464 24.1197 36.2966 23.9701 36.1169 23.9701H36.1319ZM37.3303 22.1895C37.495 22.1895 37.6598 22.0249 37.6448 21.8454C37.6448 21.6509 37.51 21.5461 37.3303 21.5312C37.1505 21.5312 37.0007 21.6658 37.0157 21.8603C37.0157 22.0399 37.1655 22.1895 37.3452 22.1895H37.3303ZM32.7464 39.9052C32.7464 39.7107 32.6265 39.5761 32.4318 39.5611C32.252 39.5611 32.1022 39.7107 32.1022 39.8903C32.1022 40.0698 32.237 40.2045 32.4018 40.2045C32.6115 40.2045 32.7314 40.0997 32.7314 39.9052H32.7464ZM37.0307 23.0723C37.0307 22.8778 36.8958 22.7431 36.7161 22.7431C36.5513 22.7431 36.3865 22.9077 36.4015 23.0723C36.4165 23.2519 36.5213 23.3716 36.7161 23.3716C36.9108 23.3716 37.0456 23.2519 37.0456 23.0574L37.0307 23.0723ZM58.0177 27.8155C58.2124 27.8155 58.3472 27.6808 58.3323 27.5012C58.3323 27.3067 58.2124 27.202 58.0327 27.187C57.8529 27.1721 57.7031 27.3217 57.7031 27.5012C57.7031 27.6808 57.8379 27.8304 58.0177 27.8304V27.8155ZM49.1495 12.0449C48.9548 12.0449 48.8199 12.1795 48.8199 12.3591C48.8199 12.5536 48.9398 12.6584 49.1345 12.6733C49.3143 12.6883 49.4641 12.5387 49.4641 12.3591C49.4641 12.1646 49.3442 12.0449 49.1495 12.0449ZM59.4258 30.9875C59.2311 30.9875 59.1112 31.1072 59.0962 31.3017C59.0962 31.4963 59.2161 31.601 59.3958 31.616C59.5606 31.6309 59.7254 31.4813 59.7404 31.3017C59.7404 31.1222 59.6056 30.9726 59.4258 30.9726V30.9875ZM47.0074 9.12718C47.0074 8.96259 46.8426 8.798 46.6628 8.798C46.483 8.798 46.3482 8.94763 46.3632 9.14214C46.3632 9.32169 46.498 9.45636 46.6778 9.45636C46.8576 9.45636 47.0074 9.30673 47.0074 9.12718ZM45.0749 8.88778C44.8802 8.88778 44.7304 8.99252 44.7154 9.17207C44.7004 9.33666 44.8502 9.51621 45.015 9.53117C45.1798 9.53117 45.3446 9.41147 45.3595 9.24688C45.3745 9.05237 45.2697 8.90274 45.0749 8.88778ZM59.5906 44.813C59.7853 44.813 59.9201 44.6933 59.9201 44.4987C59.9201 44.3192 59.7703 44.1546 59.5906 44.1696C59.4108 44.1696 59.291 44.2893 59.276 44.4838C59.276 44.6783 59.3958 44.813 59.5906 44.813ZM60.7291 39.5761C60.9088 39.5761 61.0586 39.4264 61.0586 39.2469C61.0586 39.0524 60.9238 38.9327 60.7291 38.9327C60.5343 38.9327 60.4295 39.0524 60.4145 39.2469C60.4145 39.4414 60.5493 39.5761 60.7291 39.5761ZM44.1911 53.192C44.3858 53.192 44.5207 53.0574 44.5057 52.8628C44.5057 52.6683 44.3858 52.5636 44.1911 52.5486C44.0113 52.5486 43.8615 52.6833 43.8615 52.8628C43.8615 53.0574 43.9964 53.192 44.1911 53.177V53.192ZM41.5846 52.4888C41.7643 52.4888 41.9141 52.3391 41.9141 52.1596C41.9141 51.98 41.7494 51.8304 41.5846 51.8454C41.4048 51.8603 41.285 51.9501 41.285 52.1596C41.285 52.3541 41.4048 52.4888 41.5996 52.4888H41.5846ZM47.5017 10.5187C47.6815 10.5187 47.8313 10.3691 47.8313 10.1895C47.8313 10.0249 47.6815 9.87531 47.5167 9.87531C47.3369 9.87531 47.1871 9.99501 47.1721 10.1895C47.1721 10.3691 47.307 10.5187 47.4867 10.5187H47.5017ZM42.8579 52.2793C42.6631 52.2793 42.5283 52.414 42.5433 52.6085C42.5433 52.803 42.6631 52.9077 42.8579 52.9227C43.0376 52.9227 43.1874 52.788 43.1874 52.6085C43.1874 52.4289 43.0526 52.2793 42.8579 52.2943V52.2793Z" fill="#DBB03D"></path>
    <path id="Vector_5" d="M46.1085 13.7357C46.8276 14.6783 47.5316 15.5761 48.2207 16.5037C50.6025 19.7357 52.7597 23.0873 54.5423 26.6933C55.6658 28.9825 56.6245 31.3317 57.2387 33.8155C57.4934 34.8628 57.6581 35.9102 57.748 36.9875C57.9128 38.8429 57.7181 40.6384 56.984 42.3441C55.3962 45.995 52.6398 48.2992 48.73 49.0474C45.03 49.7506 41.7643 48.7332 39.023 46.1596C37.4051 44.6484 36.2667 42.8229 35.8322 40.6234C35.6824 39.8753 35.5926 39.1272 35.5626 38.3641C35.4428 36.1945 35.8472 34.0997 36.4314 32.0199C37.3003 28.9526 38.6185 26.0648 40.1315 23.2668C41.8692 20.0349 43.8465 16.9526 45.9587 13.9601C46.0037 13.9002 46.0486 13.8404 46.1385 13.7357H46.1085ZM46.0636 15.5012C45.9887 15.591 45.9438 15.6359 45.9138 15.6808C43.8016 18.6583 41.8242 21.7107 40.1315 24.9426C38.7683 27.5611 37.5849 30.2544 36.8509 33.1272C36.3715 35.0424 36.1169 36.9726 36.3116 38.9476C36.4914 40.7431 37.0756 42.389 38.1841 43.8404C40.5659 46.9825 43.7117 48.4339 47.6515 48.1197C48.9398 48.015 50.1531 47.6708 51.2766 47.0424C55.0516 44.9476 56.9391 41.7456 56.8492 37.4214C56.8342 36.389 56.6695 35.3716 56.4447 34.3541C55.9205 31.9601 55.0216 29.7007 53.9431 27.5162C52.1605 23.9102 49.9584 20.5586 47.5316 17.3716C47.0673 16.7581 46.5729 16.1596 46.0636 15.5162V15.5012Z" fill="#DBB03D"></path>
    <path id="Vector_6" d="M46.5879 45.3666C42.6332 45.3965 39.5623 42.4788 38.8283 39.3666C38.5587 38.2594 38.5287 37.1372 38.6485 36C38.9182 33.4264 39.817 31.0624 40.9255 28.7581C42.3186 25.8703 44.0264 23.1771 45.8839 20.5736C46.0936 20.2743 46.2584 20.2743 46.4981 20.5586C48.7301 23.2968 50.6925 26.1995 52.2804 29.3566C53.1192 31.0175 53.8083 32.7382 54.2278 34.5636C54.4375 35.5062 54.6023 36.4788 54.5723 37.4514C54.4824 40.6384 53.0144 42.9875 50.2281 44.5137C49.1046 45.1272 47.8912 45.3965 46.6029 45.3816L46.5879 45.3666ZM46.4981 35.4464C47.4718 35.4464 48.2358 34.6983 48.2358 33.7556C48.2358 32.813 47.4718 32.0499 46.528 32.0349C45.5993 32.0349 44.8053 32.813 44.8053 33.7407C44.8053 34.6833 45.5543 35.4614 46.4981 35.4614V35.4464ZM46.528 37.3018C45.2098 37.3018 44.1612 38.3491 44.1612 39.6509C44.1612 40.9377 45.2248 42 46.513 42C47.8163 42 48.8649 40.9526 48.8649 39.6658C48.8649 38.3641 47.8163 37.3167 46.528 37.3167V37.3018ZM46.528 27.9651C45.8839 27.9651 45.3895 28.4589 45.3895 29.0873C45.3895 29.7008 45.8839 30.2095 46.513 30.2095C47.1422 30.2095 47.6665 29.7157 47.6665 29.0873C47.6665 28.4738 47.1572 27.9651 46.543 27.9651H46.528ZM47.0074 25.3466C47.0074 25.0324 46.7977 24.808 46.4831 24.808C46.1985 24.808 45.9588 25.0324 45.9588 25.3317C45.9588 25.616 46.1985 25.8853 46.4981 25.8703C46.7827 25.8703 47.0074 25.6459 47.0224 25.3466H47.0074Z" fill="#DBB03D"></path>
    <path id="Vector_7" d="M46.5279 37.5561C47.5315 37.5561 48.6101 38.3342 48.5951 39.6509C48.5951 41.0274 47.4417 41.7606 46.438 41.7307C45.3445 41.7007 44.4007 40.7431 44.4157 39.6359C44.4307 38.4688 45.3594 37.5561 46.5279 37.5561Z" fill="#DBB03D"></path>
    <path id="Vector_8" d="M46.5279 28.2344C47.0072 28.2344 47.3967 28.6234 47.3967 29.1023C47.3967 29.5661 46.9773 29.9551 46.5129 29.9551C46.0485 29.9551 45.644 29.5511 45.644 29.0873C45.644 28.6234 46.0485 28.2344 46.5279 28.2344Z" fill="#DBB03D"></path>
  </g>
  <defs>
    <clipPath id="clip0_103_27">
      <rect width="90" height="90" fill="white"></rect>
    </clipPath>
  </defs>
</svg>
