<svg xmlns="http://www.w3.org/2000/svg" width="67" height="67" viewBox="0 0 67 67" fill="none">
    <g clip-path="url(#clip0_73_82)">
        <path id="Vector" d="M9.91687 35.2549C11.7778 35.3962 13.5758 35.3727 15.3111 35.7024C17.7923 36.1736 20.3127 36.6682 22.6526 37.5712C30.2454 40.5078 33.7866 46.648 32.8051 54.7354C32.5224 57.0517 32.5224 57.0674 30.1668 57.1066C22.3464 57.2401 16.6459 53.8167 13.089 46.86C11.2595 43.2795 10.4115 39.4164 9.91687 35.247V35.2549Z" fill="white"/>
        <path id="Vector_2" d="M57.091 33.9986C56.9732 35.7653 56.9261 37.4142 56.7377 39.0474C56.3137 42.777 55.3636 46.3574 53.4242 49.616C50.6839 54.2093 46.6166 56.6905 41.2695 56.9339C39.652 57.0046 38.0267 56.7847 36.4013 56.7298C35.6632 56.7062 35.3884 56.3607 35.3335 55.6384C34.7524 48.1241 37.3357 42.1331 43.8527 38.0816C47.8179 35.6161 52.2542 34.5796 57.091 33.9908V33.9986Z" fill="white"/>
        <path id="Vector_3" d="M34.297 40.2565C31.062 40.1623 28.463 38.851 26.5079 36.2521C25.8248 35.3334 25.3144 34.3362 25.0239 33.2291C24.859 32.6088 24.7491 31.9807 24.7098 31.3368C24.6941 31.0463 24.6627 30.7558 24.6627 30.4653C24.6627 29.2247 24.8198 28.0076 25.0867 26.7984C25.6049 24.5057 26.4529 22.3307 27.4658 20.2186C28.8321 17.3683 30.4653 14.6673 32.2319 12.0448C32.6873 11.3617 33.1663 10.6942 33.6296 10.0268C33.7473 9.86195 33.8259 9.8541 33.9593 10.0111C35.1999 11.5108 36.362 13.0812 37.4534 14.6908C38.7804 16.646 40.0053 18.6717 41.0574 20.7839C41.8897 22.4563 42.6121 24.1681 43.1382 25.9583C43.3973 26.8534 43.6093 27.7564 43.7349 28.675C43.8448 29.4759 43.9312 30.2768 43.8841 31.0856C43.7742 33.182 43.0832 35.0664 41.7484 36.6918C40.3272 38.4349 38.5056 39.542 36.3149 40.0367C35.6475 40.1859 34.9722 40.2565 34.2813 40.2565H34.297ZM33.818 10.2781C33.7787 10.3331 33.7473 10.3723 33.7238 10.4037C33.0878 11.346 32.4282 12.2725 31.8079 13.2225C30.1826 15.6959 28.6986 18.2477 27.458 20.9331C26.5472 22.9118 25.7855 24.9454 25.3301 27.0811C25.1495 27.937 25.0161 28.8007 24.9846 29.6801C24.9611 30.1983 24.9689 30.7165 25.0082 31.2347C25.0475 31.7373 25.1181 32.2476 25.2202 32.7423C25.4715 33.9593 25.9975 35.0586 26.7356 36.0558C28.5023 38.427 30.8578 39.7305 33.8023 39.9503C34.7131 40.021 35.6239 39.9268 36.519 39.6991C39.3379 38.9531 41.4029 37.2885 42.7063 34.6817C43.3188 33.4568 43.5936 32.1534 43.6171 30.7872C43.6171 30.4495 43.6014 30.1119 43.57 29.7743C43.5151 29.2168 43.4601 28.6593 43.3659 28.1097C43.1696 26.9555 42.8398 25.8326 42.4472 24.7255C41.7327 22.7076 40.7983 20.7917 39.754 18.923C38.1993 16.1591 36.417 13.5523 34.4619 11.0633C34.2577 10.8042 34.0457 10.5451 33.8259 10.2702L33.818 10.2781Z" fill="#DBB03D"/>
        <path id="Vector_4" d="M42.8869 30.5752C42.9104 34.6032 40.0916 38.0502 36.1971 38.9453C35.4119 39.1259 34.6189 39.1965 33.818 39.1416C31.7215 39.0081 29.892 38.2229 28.3688 36.7703C27.3716 35.8202 26.6021 34.7131 26.1545 33.4019C25.9425 32.7816 25.8012 32.1456 25.7384 31.4939C25.707 31.1405 25.6677 30.7872 25.6677 30.4338C25.6677 29.209 25.8326 27.9998 26.1153 26.8063C26.5628 24.9611 27.246 23.2023 28.0468 21.4827C29.1068 19.2135 30.3631 17.0621 31.7372 14.9657C32.3654 14.0156 33.0171 13.0812 33.6609 12.139C33.7866 11.9506 33.8729 11.9506 34.0143 12.1233C36.1735 14.7772 38.1051 17.5882 39.7383 20.5955C40.6098 22.1894 41.3636 23.8383 41.9446 25.5578C42.2823 26.5629 42.5571 27.5836 42.7063 28.6358C42.7927 29.2718 42.879 30.5595 42.8633 30.5673L42.8869 30.5752ZM28.1489 29.7115C28.196 30.1433 28.2196 30.583 28.2824 31.007C28.4394 31.9571 28.8163 32.8208 29.4131 33.5746C30.9834 35.5533 33.0249 36.4013 35.514 35.9459C37.6811 35.5533 39.2122 34.2577 40.0838 32.2319C40.4999 31.2661 40.6177 30.2376 40.5078 29.1854C40.4449 28.5651 40.3429 27.9605 40.1937 27.3559C39.8168 25.8798 39.2122 24.49 38.5055 23.1395C37.5162 21.2472 36.3384 19.4648 35.0429 17.7688C34.7759 17.4155 34.5011 17.0778 34.2184 16.7323C34.1085 16.591 33.9907 16.5989 33.8886 16.7323C33.8729 16.7559 33.8572 16.7795 33.8415 16.803C32.7344 18.3655 31.6901 19.9673 30.7714 21.6476C29.9627 23.1238 29.256 24.647 28.7535 26.2645C28.408 27.3795 28.1803 28.518 28.1489 29.6958V29.7115ZM33.7944 37.5241C33.7002 37.5241 33.6217 37.6026 33.6217 37.6968C33.6217 37.7832 33.708 37.8774 33.8023 37.8696C33.8965 37.8617 33.9593 37.8068 33.9671 37.7047C33.9671 37.6105 33.8886 37.5319 33.7944 37.5319V37.5241ZM27.1674 31.4939C27.1674 31.3996 27.0889 31.3211 26.9947 31.329C26.8926 31.329 26.8377 31.3918 26.8298 31.4939C26.8298 31.5881 26.9083 31.6666 26.9947 31.6744C27.0889 31.6744 27.1674 31.5959 27.1674 31.5017V31.4939ZM37.6732 19.1115C37.579 19.1115 37.5005 19.1978 37.5083 19.292C37.5083 19.3784 37.5947 19.4569 37.6811 19.4569C37.7675 19.4569 37.8538 19.3706 37.8538 19.2842C37.8538 19.19 37.7675 19.1115 37.6732 19.1193V19.1115ZM41.6777 29.2247C41.7719 29.2247 41.8504 29.1461 41.8504 29.0519C41.8504 28.9577 41.7719 28.8792 41.6777 28.8792C41.5913 28.8792 41.5128 28.9577 41.5128 29.0441C41.5128 29.1383 41.5913 29.2247 41.6777 29.2247ZM38.7725 21.2864C38.8589 21.2864 38.9452 21.1922 38.9374 21.1058C38.9374 21.0116 38.8432 20.9409 38.7568 20.9409C38.6704 20.9409 38.5998 21.0195 38.5998 21.1137C38.5998 21.2079 38.6861 21.2864 38.7725 21.2864ZM37.2492 37.2964C37.3435 37.2964 37.4298 37.2257 37.4298 37.1393C37.4298 37.053 37.3513 36.9666 37.2649 36.9588C37.1786 36.9588 37.0922 37.0373 37.0922 37.1315C37.0922 37.2179 37.1629 37.2964 37.2571 37.3042L37.2492 37.2964ZM31.0855 37.1393C31.1719 37.1393 31.2661 37.053 31.2504 36.9588C31.2426 36.8645 31.1797 36.8017 31.0777 36.7939C30.9756 36.7939 30.9049 36.8645 30.9049 36.9666C30.9049 37.0608 30.9834 37.1393 31.0777 37.1393H31.0855ZM36.9195 17.9258C36.8331 17.9258 36.7467 18.0043 36.7389 18.0986C36.7389 18.1849 36.8174 18.2713 36.9116 18.2713C37.0058 18.2713 37.0765 18.2006 37.0843 18.1064C37.0843 18.0122 37.0137 17.9258 36.9195 17.9258ZM27.9762 25.2438C27.9762 25.1495 27.9055 25.071 27.8113 25.0632C27.7171 25.0632 27.6385 25.1417 27.6385 25.2359C27.6385 25.3301 27.7171 25.4087 27.8113 25.4008C27.9055 25.4008 27.9762 25.3301 27.9762 25.2359V25.2438ZM38.5919 20.5012C38.5919 20.407 38.5134 20.3285 38.4192 20.3285C38.3171 20.3285 38.2621 20.3913 38.2464 20.4855C38.2386 20.5719 38.3249 20.6583 38.4113 20.6661C38.5055 20.6661 38.584 20.5876 38.584 20.4934L38.5919 20.5012ZM39.4399 22.1972C39.3457 22.1972 39.2672 22.2758 39.2672 22.37C39.2672 22.4642 39.3378 22.5349 39.4321 22.5349C39.5341 22.5349 39.6126 22.4642 39.6126 22.37C39.6126 22.2758 39.5341 22.1972 39.4399 22.1972ZM27.403 27.2931C27.403 27.2067 27.3402 27.1204 27.2538 27.1125C27.1596 27.1047 27.0732 27.1675 27.0654 27.2617C27.0575 27.3559 27.1282 27.4423 27.2224 27.4501C27.3166 27.4501 27.403 27.3873 27.4108 27.2931H27.403ZM36.5112 17.3369C36.4169 17.3369 36.3306 17.4233 36.3384 17.5097C36.3463 17.6117 36.4091 17.6667 36.5033 17.6746C36.5897 17.6824 36.676 17.596 36.676 17.5018C36.676 17.4076 36.6054 17.3291 36.5033 17.3291L36.5112 17.3369ZM27.1517 28.675C27.1517 28.5808 27.0654 28.5023 26.9711 28.5023C26.8848 28.5023 26.8141 28.5808 26.8062 28.675C26.8062 28.7771 26.8769 28.8478 26.9711 28.8478C27.0654 28.8478 27.1439 28.7693 27.1439 28.675H27.1517ZM41.4186 32.7266C41.5128 32.7266 41.5913 32.6481 41.5835 32.5539C41.5835 32.4518 41.5128 32.3968 41.4186 32.389C41.3322 32.3811 41.2458 32.4675 41.2458 32.5617C41.2458 32.6559 41.3165 32.7344 41.4186 32.7344V32.7266ZM28.1411 34.1321C28.1411 34.0379 28.0547 33.9593 27.9683 33.9672C27.8741 33.9672 27.8034 34.0536 27.8034 34.1478C27.8034 34.2342 27.882 34.3127 27.9683 34.3127C28.0625 34.3127 28.1411 34.2342 28.1332 34.1399L28.1411 34.1321ZM40.6569 34.4619C40.6569 34.3676 40.5784 34.2891 40.4842 34.2891C40.3978 34.2891 40.3115 34.3755 40.3115 34.4619C40.3115 34.5482 40.3821 34.6267 40.4763 34.6267C40.5706 34.6267 40.6491 34.5561 40.6569 34.4619ZM40.0602 35.1921C40.1544 35.1921 40.2251 35.1293 40.2329 35.035C40.2329 34.933 40.1701 34.8545 40.0759 34.8545C39.9817 34.8545 39.8953 34.9251 39.8953 35.0193C39.8953 35.1136 39.966 35.1921 40.0602 35.1999V35.1921ZM28.463 23.9089C28.463 23.8069 28.3923 23.7284 28.2981 23.7362C28.196 23.7362 28.1411 23.7912 28.1254 23.8932C28.1175 23.9875 28.196 24.066 28.2902 24.0738C28.3845 24.0738 28.463 24.0032 28.463 23.9089ZM41.5913 31.698C41.4971 31.698 41.4186 31.7765 41.4186 31.8707C41.4186 31.965 41.5049 32.0513 41.5913 32.0435C41.6855 32.0356 41.7484 31.9807 41.7562 31.8786C41.7562 31.7765 41.6855 31.7059 41.5913 31.7059V31.698ZM27.0497 30.0884C27.0497 29.9941 26.9711 29.9078 26.8769 29.9156C26.7827 29.9156 26.7199 29.9784 26.712 30.0805C26.712 30.1747 26.7827 30.2533 26.8769 30.2611C26.9711 30.2611 27.0497 30.1904 27.0497 30.0884ZM39.911 22.9903C39.911 22.8961 39.8325 22.8254 39.7304 22.8332C39.6441 22.8332 39.5655 22.9118 39.5655 22.9981C39.5655 23.0924 39.6519 23.1709 39.7383 23.1709C39.8325 23.1709 39.911 23.0924 39.9032 22.9981L39.911 22.9903ZM41.5364 31.1641C41.5364 31.2661 41.607 31.3447 41.7012 31.3368C41.7955 31.3368 41.8583 31.274 41.8661 31.1719C41.8661 31.0777 41.7955 30.9992 41.7012 30.9913C41.607 30.9913 41.5285 31.0699 41.5285 31.1641H41.5364ZM41.2615 27.1282C41.3558 27.1282 41.4343 27.0497 41.4343 26.9555C41.4343 26.8613 41.3479 26.7827 41.2615 26.7827C41.1673 26.7827 41.0966 26.8691 41.1045 26.9633C41.1045 27.0575 41.1752 27.1282 41.2694 27.1204L41.2615 27.1282ZM28.2039 24.5685C28.2039 24.4743 28.1254 24.3958 28.039 24.3879C27.9526 24.3879 27.8663 24.4664 27.8663 24.5607C27.8663 24.6549 27.9448 24.7334 28.039 24.7334C28.1254 24.7334 28.2039 24.6549 28.2039 24.5685ZM28.3688 34.878C28.4551 34.878 28.5415 34.7995 28.5494 34.7053C28.5494 34.6189 28.4787 34.5404 28.3845 34.5404C28.2824 34.5404 28.2117 34.5953 28.2039 34.6974C28.2039 34.7916 28.2745 34.8702 28.3688 34.878ZM39.0473 36.1893C39.1337 36.1893 39.2201 36.1108 39.2201 36.0165C39.2201 35.9302 39.1494 35.8516 39.0552 35.8516C38.9531 35.8516 38.8824 35.9145 38.8746 36.0087C38.8746 36.1029 38.9452 36.1814 39.0395 36.1893H39.0473ZM37.8774 36.6447C37.7753 36.6447 37.7046 36.7153 37.7046 36.8096C37.7046 36.9038 37.791 36.9823 37.8774 36.9823C37.9795 36.9823 38.0344 36.9195 38.0423 36.8174C38.0423 36.7153 37.9795 36.6447 37.8774 36.6447ZM36.574 37.5319C36.6682 37.5319 36.7467 37.4534 36.7467 37.3592C36.7467 37.265 36.6603 37.1865 36.5661 37.1943C36.4719 37.1943 36.4012 37.2807 36.4012 37.3749C36.4012 37.4691 36.4798 37.5319 36.574 37.5319ZM36.0557 37.5476C36.0557 37.4534 35.9851 37.3749 35.8909 37.3749C35.8045 37.3749 35.726 37.4456 35.7181 37.5319C35.7181 37.6262 35.7809 37.7125 35.8752 37.7125C35.9694 37.7125 36.0479 37.6419 36.0557 37.5476ZM34.6503 37.7125C34.6503 37.6183 34.5796 37.5398 34.4854 37.5319C34.3912 37.5319 34.3126 37.6105 34.3126 37.7047C34.3126 37.8068 34.3676 37.8617 34.4697 37.8696C34.5717 37.8774 34.6424 37.8068 34.6503 37.7125ZM28.5494 23.0688C28.4551 23.0688 28.3766 23.1552 28.3845 23.2494C28.3845 23.3436 28.463 23.4143 28.5651 23.4064C28.6671 23.4064 28.7221 23.3436 28.7221 23.2415C28.7221 23.1395 28.6514 23.0688 28.5494 23.0688ZM32.1141 17.0307C32.1141 16.9286 32.0434 16.858 31.9414 16.858C31.8471 16.858 31.7686 16.9365 31.7686 17.0307C31.7686 17.1171 31.8471 17.1956 31.9335 17.1956C32.0277 17.1956 32.1063 17.1249 32.1063 17.0307H32.1141ZM39.2593 21.7261C39.2593 21.6319 39.1808 21.5534 39.0866 21.5534C38.9845 21.5534 38.9295 21.6162 38.9138 21.7104C38.906 21.7968 38.9923 21.8832 39.0787 21.891C39.1729 21.891 39.2515 21.8204 39.2515 21.7261H39.2593ZM38.0423 19.7082C37.948 19.7082 37.8695 19.7789 37.8695 19.8731C37.8695 19.9673 37.9245 20.038 38.0266 20.038C38.1208 20.038 38.2072 19.9673 38.2072 19.8731C38.2072 19.7789 38.1365 19.7003 38.0423 19.7003V19.7082ZM37.4455 18.6718C37.4455 18.5775 37.3749 18.499 37.2806 18.499C37.1943 18.499 37.1079 18.5854 37.1079 18.6718C37.1079 18.7738 37.1707 18.8288 37.2728 18.8366C37.367 18.8366 37.4455 18.7738 37.4455 18.6718ZM27.2931 32.177C27.2931 32.0749 27.2224 32.0121 27.1203 32.0121C27.0182 32.0121 26.9633 32.0749 26.9554 32.177C26.9554 32.2712 27.034 32.3497 27.1282 32.3497C27.2224 32.3497 27.2931 32.2712 27.2931 32.177ZM27.3402 32.6873C27.246 32.6873 27.1674 32.758 27.1674 32.8601C27.1674 32.9543 27.2381 33.025 27.3323 33.025C27.4265 33.025 27.5051 32.9543 27.5129 32.8601C27.5129 32.7659 27.4344 32.6873 27.3402 32.6873ZM31.0306 18.232C31.0306 18.3263 31.1091 18.4126 31.1954 18.4126C31.2818 18.4126 31.3682 18.3263 31.3682 18.2399C31.3682 18.1378 31.3054 18.0829 31.2111 18.075C31.1169 18.0672 31.0384 18.1378 31.0384 18.2399L31.0306 18.232ZM40.8454 34.0143C40.9396 34.0143 41.0181 33.9436 41.0103 33.8416C41.0103 33.7395 40.9475 33.6845 40.8454 33.6767C40.7512 33.6767 40.6726 33.7473 40.6726 33.8416C40.6726 33.9358 40.7512 34.0143 40.8454 34.0143ZM27.5522 26.5864C27.5522 26.4922 27.4815 26.4137 27.3873 26.4137C27.3009 26.4137 27.2145 26.4922 27.2145 26.5864C27.2145 26.6728 27.2852 26.7513 27.3794 26.7513C27.4815 26.7513 27.56 26.6885 27.56 26.5943L27.5522 26.5864ZM41.5756 28.5101C41.6698 28.5101 41.7484 28.4238 41.7405 28.3296C41.7326 28.2275 41.6698 28.1725 41.5678 28.1725C41.4735 28.1725 41.395 28.2589 41.395 28.3453C41.395 28.4395 41.4814 28.518 41.5756 28.5101ZM34.1163 14.1098C34.1163 14.0234 34.0378 13.9371 33.9514 13.9292C33.8651 13.9292 33.7787 14.0077 33.7787 14.102C33.7787 14.1883 33.8494 14.2669 33.9357 14.2747C34.03 14.2747 34.1163 14.204 34.1163 14.1098ZM40.7669 24.9454C40.7669 24.8512 40.6884 24.7727 40.5941 24.7805C40.4921 24.7805 40.4371 24.8355 40.4292 24.9454C40.4292 25.0475 40.4999 25.126 40.5941 25.126C40.6884 25.126 40.7669 25.0475 40.7669 24.9532V24.9454ZM28.9969 35.2549C28.9969 35.1607 28.9105 35.09 28.8163 35.09C28.7221 35.09 28.6593 35.1607 28.6514 35.2549C28.6514 35.3491 28.7221 35.4276 28.8242 35.4276C28.9184 35.4276 28.9969 35.3491 28.9969 35.2549ZM39.754 35.5376C39.754 35.4433 39.6676 35.3648 39.5734 35.3727C39.4792 35.3727 39.4085 35.459 39.4163 35.5533C39.4163 35.6553 39.487 35.7103 39.5812 35.7103C39.6755 35.7103 39.754 35.6318 39.754 35.5376ZM29.3188 35.9302C29.4131 35.9302 29.4916 35.8595 29.4994 35.7653C29.4994 35.6789 29.4209 35.5925 29.3267 35.5925C29.2403 35.5925 29.1618 35.6632 29.1618 35.7574C29.1618 35.8595 29.2246 35.938 29.3188 35.938V35.9302ZM40.8454 25.4322C40.759 25.4322 40.6805 25.495 40.6726 25.5892C40.6726 25.6913 40.7355 25.7698 40.8218 25.7777C40.9082 25.7777 41.0024 25.707 41.0024 25.6128C41.0024 25.5186 40.9318 25.4401 40.8375 25.4322H40.8454ZM29.8528 36.3856C29.9391 36.3934 30.0334 36.3228 30.0412 36.2285C30.0491 36.1422 29.9863 36.0636 29.892 36.0479C29.79 36.0322 29.7114 36.095 29.7036 36.1893C29.6957 36.2913 29.7585 36.3699 29.8528 36.3777V36.3856ZM30.4495 36.4484C30.3631 36.4484 30.2846 36.5269 30.2846 36.6133C30.2846 36.7075 30.371 36.7939 30.4652 36.786C30.5673 36.7782 30.6223 36.7153 30.6223 36.6133C30.6223 36.5191 30.5437 36.4484 30.4495 36.4484ZM27.5757 25.7306C27.4815 25.7306 27.403 25.817 27.4108 25.9112C27.4108 25.9975 27.5051 26.0839 27.5914 26.0761C27.6857 26.0761 27.7563 25.9897 27.7485 25.8876C27.7485 25.7934 27.67 25.7306 27.5757 25.7306ZM39.8718 23.6184C39.8639 23.7048 39.9267 23.7912 40.0131 23.8069C40.1073 23.8226 40.2015 23.7441 40.2094 23.6498C40.2172 23.5635 40.1466 23.4849 40.0602 23.4692C39.966 23.4614 39.8796 23.5242 39.8718 23.6184ZM33.127 15.0913C33.0328 15.0913 32.9621 15.1698 32.9621 15.2719C32.9621 15.3661 33.0328 15.4368 33.127 15.4368C33.2212 15.4368 33.2997 15.3583 33.2997 15.264C33.2997 15.1698 33.2134 15.0913 33.127 15.0913ZM35.2627 15.9393C35.3569 15.9393 35.4276 15.8529 35.4276 15.7587C35.4276 15.6645 35.3491 15.5938 35.247 15.6017C35.1449 15.6017 35.09 15.6645 35.09 15.7666C35.09 15.8608 35.1685 15.9393 35.2627 15.9393ZM32.7266 16.0178C32.8208 16.0178 32.8993 15.9472 32.8993 15.8529C32.8993 15.7587 32.8208 15.6802 32.7266 15.6802C32.6245 15.6802 32.5695 15.743 32.5617 15.8451C32.5617 15.9472 32.6245 16.0178 32.7266 16.0178ZM35.3726 37.6654C35.3726 37.5791 35.2941 37.4927 35.2077 37.4848C35.1135 37.4848 35.035 37.5633 35.035 37.6576C35.035 37.7439 35.1057 37.8225 35.1999 37.8303C35.2941 37.8303 35.3805 37.7596 35.3805 37.6654H35.3726ZM38.6626 36.4405C38.6626 36.3463 38.5841 36.2678 38.4898 36.2756C38.3878 36.2756 38.3328 36.3385 38.3249 36.4405C38.3249 36.5426 38.3956 36.6133 38.4898 36.6133C38.5841 36.6133 38.6626 36.5348 38.6626 36.4405ZM32.5067 16.4418C32.5067 16.3397 32.4282 16.2769 32.334 16.2769C32.2319 16.2769 32.1691 16.3476 32.1769 16.4497C32.1769 16.5517 32.2476 16.6067 32.3418 16.6067C32.436 16.6067 32.5146 16.5282 32.5146 16.434L32.5067 16.4418ZM27.7877 33.5118C27.7877 33.4176 27.7014 33.339 27.615 33.339C27.5208 33.339 27.4501 33.4254 27.4501 33.5196C27.4501 33.6139 27.5286 33.6845 27.615 33.6767C27.7171 33.6767 27.7877 33.606 27.7877 33.5039V33.5118ZM36.0872 17.0857C36.1892 17.0857 36.2599 17.015 36.2599 16.9208C36.2599 16.8266 36.1814 16.748 36.0872 16.748C35.9851 16.748 35.9301 16.803 35.9223 16.9129C35.9223 17.015 35.9851 17.0857 36.0872 17.0857ZM41.5992 27.6543C41.5992 27.5601 41.5206 27.4815 41.4264 27.4815C41.3322 27.4815 41.2615 27.5522 41.2615 27.6543C41.2615 27.7564 41.3244 27.8113 41.4186 27.8113C41.5206 27.8113 41.5913 27.7407 41.5913 27.6464L41.5992 27.6543ZM27.0654 27.8035C26.9711 27.8035 26.9005 27.882 26.9005 27.9841C26.9005 28.0783 26.979 28.149 27.0811 28.1411C27.1753 28.1411 27.2381 28.0626 27.2381 27.9762C27.2381 27.882 27.1596 27.8035 27.0654 27.8113V27.8035ZM31.7372 17.651C31.7372 17.5568 31.6666 17.4783 31.5723 17.4704C31.4781 17.4704 31.3996 17.5489 31.3996 17.6432C31.3996 17.7452 31.4546 17.808 31.5566 17.808C31.6587 17.808 31.7294 17.7452 31.7372 17.651ZM30.8264 18.6875C30.7322 18.6875 30.6537 18.7738 30.6615 18.8602C30.6615 18.9544 30.74 19.0251 30.8421 19.0172C30.9442 19.0172 30.9991 18.9544 30.9991 18.8523C30.9991 18.7503 30.9285 18.6796 30.8343 18.6796L30.8264 18.6875ZM30.6458 19.4805C30.6458 19.3863 30.5751 19.3078 30.4809 19.3078C30.3867 19.3078 30.316 19.3706 30.316 19.4648C30.316 19.5669 30.3788 19.6375 30.4731 19.6454C30.5673 19.6454 30.6458 19.5747 30.6537 19.4805H30.6458ZM27.0654 29.3896C27.0654 29.2875 26.9947 29.2168 26.8926 29.2168C26.7905 29.2168 26.7199 29.2875 26.7277 29.3896C26.7277 29.4759 26.8062 29.5544 26.8926 29.5544C26.9947 29.5544 27.0654 29.4838 27.0654 29.3896ZM30.1119 19.9281C30.0334 19.9281 29.9705 19.9752 29.9627 20.0851C29.9627 20.1872 30.0255 20.2657 30.1197 20.2657C30.214 20.2657 30.2925 20.195 30.3003 20.1008C30.3003 20.0066 30.2297 19.9281 30.1119 19.9281ZM29.9548 20.7211C29.9548 20.619 29.8842 20.5483 29.7821 20.5483C29.6879 20.5483 29.6094 20.6347 29.6172 20.7289C29.6251 20.831 29.68 20.886 29.7821 20.886C29.8842 20.886 29.9548 20.8232 29.9548 20.7211ZM41.7248 29.9392C41.8269 29.9392 41.8975 29.8764 41.8975 29.7743C41.8975 29.6801 41.8269 29.6016 41.7248 29.6016C41.6384 29.6016 41.5599 29.6801 41.5599 29.7664C41.5599 29.8607 41.6306 29.9392 41.7248 29.9392ZM28.8477 22.4564C28.7535 22.4564 28.6828 22.5349 28.6828 22.6291C28.6828 22.7312 28.7535 22.794 28.8556 22.794C28.9498 22.794 29.0126 22.7233 29.0126 22.6291C29.0126 22.5349 28.9341 22.4564 28.8399 22.4564H28.8477ZM29.4759 21.522C29.5623 21.522 29.6486 21.4356 29.6408 21.3414C29.6408 21.2393 29.5701 21.1843 29.4759 21.1765C29.3817 21.1765 29.3031 21.2472 29.311 21.3492C29.311 21.4435 29.3895 21.522 29.4837 21.522H29.4759ZM27.0732 30.8186C27.0732 30.7165 27.0104 30.6459 26.9083 30.638C26.8141 30.638 26.7356 30.7165 26.7356 30.8107C26.7356 30.905 26.8062 30.9756 26.8926 30.9756C27.0025 30.9756 27.0654 30.9207 27.0654 30.8186H27.0732ZM29.3188 21.9852C29.3188 21.8832 29.2482 21.8125 29.154 21.8125C29.0676 21.8125 28.9812 21.8989 28.9891 21.9852C28.9969 22.0795 29.0519 22.1423 29.154 22.1423C29.256 22.1423 29.3267 22.0795 29.3267 21.9774L29.3188 21.9852ZM40.3193 24.4743C40.4214 24.4743 40.4921 24.4036 40.4842 24.3094C40.4842 24.2073 40.4214 24.1524 40.3272 24.1445C40.2329 24.1367 40.1544 24.2152 40.1544 24.3094C40.1544 24.4036 40.2251 24.4821 40.3193 24.4821V24.4743ZM35.671 16.1984C35.5689 16.1984 35.4983 16.2691 35.4983 16.3633C35.4983 16.4654 35.5611 16.5203 35.6632 16.5282C35.7574 16.536 35.8359 16.4575 35.8359 16.3633C35.8359 16.2612 35.7731 16.1984 35.671 16.1984ZM41.0574 26.1389C40.9553 26.1389 40.8925 26.2017 40.8846 26.3038C40.8846 26.4058 40.9475 26.4608 41.0417 26.4687C41.1281 26.4765 41.2144 26.398 41.2223 26.3038C41.2223 26.2095 41.1516 26.131 41.0574 26.131V26.1389ZM34.5482 14.6673C34.5482 14.5809 34.4618 14.4946 34.3676 14.4946C34.2734 14.4946 34.2027 14.5731 34.2106 14.6752C34.2106 14.7694 34.2812 14.84 34.3754 14.84C34.4697 14.84 34.5482 14.7615 34.5482 14.6673ZM33.5353 14.5417C33.4332 14.5417 33.3547 14.5966 33.3469 14.6909C33.339 14.7772 33.4175 14.8714 33.5039 14.8793C33.5903 14.8793 33.6766 14.8165 33.6845 14.7301C33.6923 14.628 33.6374 14.5495 33.5353 14.5417ZM41.1438 33.394C41.2458 33.394 41.3165 33.3312 41.3165 33.2291C41.3165 33.1349 41.238 33.0485 41.1438 33.0564C41.0495 33.0564 40.9867 33.1192 40.9789 33.2213C40.9789 33.3233 41.0417 33.394 41.1438 33.394ZM41.7405 30.6459C41.8347 30.6459 41.9132 30.5673 41.9132 30.4731C41.9132 30.371 41.8426 30.3082 41.7405 30.3082C41.6384 30.3082 41.5835 30.371 41.5756 30.4731C41.5756 30.5752 41.6463 30.6459 41.7405 30.6459ZM33.072 37.7911C33.1741 37.7911 33.2448 37.7204 33.2369 37.6183C33.2369 37.5162 33.1741 37.4613 33.072 37.4534C32.9778 37.4534 32.8993 37.5241 32.8993 37.6183C32.8993 37.7204 32.97 37.791 33.072 37.7832V37.7911ZM31.7058 37.422C31.8 37.422 31.8786 37.3435 31.8786 37.2493C31.8786 37.155 31.7922 37.0765 31.7058 37.0844C31.6116 37.0922 31.5488 37.1393 31.5488 37.2493C31.5488 37.3513 31.6116 37.422 31.7137 37.422H31.7058ZM34.8073 15.3975C34.9015 15.3975 34.98 15.319 34.98 15.2248C34.98 15.1384 34.9015 15.0599 34.8152 15.0599C34.7209 15.0599 34.6424 15.1227 34.6346 15.2248C34.6346 15.319 34.7052 15.3975 34.7994 15.3975H34.8073ZM32.3732 37.3121C32.2711 37.3121 32.2005 37.3828 32.2083 37.4848C32.2083 37.5869 32.2711 37.6419 32.3732 37.6497C32.4674 37.6497 32.546 37.5791 32.546 37.4848C32.546 37.3906 32.4753 37.3121 32.3732 37.3199V37.3121Z" fill="#DBB03D"/>
        <path id="Vector_5" d="M34.0771 17.0935C34.454 17.5882 34.823 18.0593 35.1842 18.5461C36.4327 20.2421 37.5633 22.0009 38.4977 23.8932C39.0866 25.0946 39.5891 26.3273 39.911 27.6307C40.0445 28.1803 40.1309 28.73 40.178 29.2953C40.2644 30.2689 40.1623 31.2112 39.7776 32.1063C38.9453 34.0221 37.5005 35.2313 35.4512 35.6239C33.5118 35.993 31.8001 35.459 30.3632 34.1085C29.5152 33.3155 28.9184 32.3575 28.6907 31.2033C28.6122 30.8107 28.5651 30.4181 28.5494 30.0177C28.4866 28.8792 28.6986 27.7799 29.0048 26.6885C29.4602 25.0789 30.1512 23.5634 30.9442 22.0951C31.855 20.3991 32.8915 18.7817 33.9986 17.2113C34.0221 17.1799 34.0457 17.1485 34.0928 17.0935H34.0771ZM34.0535 18.02C34.0143 18.0671 33.9907 18.0907 33.975 18.1142C32.8679 19.6768 31.8315 21.2786 30.9442 22.9746C30.2297 24.3486 29.6094 25.762 29.2246 27.2695C28.9734 28.2746 28.8399 29.2875 28.942 30.3239C29.0362 31.2661 29.3424 32.1298 29.9235 32.8915C31.1719 34.5404 32.8208 35.302 34.8858 35.1371C35.5611 35.0821 36.1971 34.9015 36.786 34.5718C38.7647 33.4725 39.754 31.7922 39.7069 29.523C39.699 28.9812 39.6127 28.4473 39.4949 27.9134C39.2201 26.6571 38.749 25.4714 38.1836 24.3251C37.2493 22.4328 36.095 20.674 34.823 19.0015C34.5796 18.6796 34.3205 18.3655 34.0535 18.0279V18.02Z" fill="#DBB03D"/>
        <path id="Vector_6" d="M34.3283 33.6924C32.2554 33.7081 30.6458 32.177 30.2611 30.5438C30.1197 29.9627 30.104 29.3738 30.1668 28.7771C30.3082 27.4266 30.7793 26.186 31.3603 24.9768C32.0905 23.4614 32.9856 22.0481 33.9593 20.6818C34.0692 20.5248 34.1556 20.5248 34.2812 20.674C35.4511 22.1109 36.4797 23.6341 37.312 25.2909C37.7517 26.1624 38.1129 27.0654 38.3328 28.0233C38.4427 28.518 38.5291 29.0284 38.5134 29.5387C38.4663 31.2112 37.6968 32.4439 36.2363 33.2448C35.6474 33.5667 35.0114 33.7081 34.3362 33.7002L34.3283 33.6924ZM34.2812 28.4866C34.7916 28.4866 35.192 28.094 35.192 27.5993C35.192 27.1047 34.7916 26.7042 34.2969 26.6964C33.8101 26.6964 33.3939 27.1047 33.3939 27.5915C33.3939 28.0861 33.7865 28.4944 34.2812 28.4944V28.4866ZM34.2969 29.4602C33.6059 29.4602 33.0563 30.0098 33.0563 30.693C33.0563 31.3682 33.6138 31.9257 34.2891 31.9257C34.9722 31.9257 35.5218 31.3761 35.5218 30.7008C35.5218 30.0177 34.9722 29.4681 34.2969 29.4681V29.4602ZM34.2969 24.5607C33.9593 24.5607 33.7002 24.8198 33.7002 25.1495C33.7002 25.4715 33.9593 25.7384 34.2891 25.7384C34.6188 25.7384 34.8937 25.4793 34.8937 25.1495C34.8937 24.8276 34.6267 24.5607 34.3048 24.5607H34.2969ZM34.5482 23.1866C34.5482 23.0217 34.4382 22.9039 34.2734 22.9039C34.1242 22.9039 33.9985 23.0217 33.9985 23.1787C33.9985 23.3279 34.1242 23.4692 34.2812 23.4614C34.4304 23.4614 34.5482 23.3436 34.556 23.1866H34.5482Z" fill="#DBB03D"/>
        <path id="Vector_7" d="M34.3048 29.5937C34.8309 29.5937 35.3962 30.002 35.3884 30.693C35.3884 31.4153 34.7838 31.8001 34.2577 31.7844C33.6845 31.7687 33.1899 31.2661 33.1977 30.6851C33.2056 30.0727 33.6924 29.5937 34.3048 29.5937Z" fill="#DBB03D"/>
        <path id="Vector_8" d="M34.297 24.702C34.5483 24.702 34.7524 24.9061 34.7524 25.1574C34.7524 25.4008 34.5326 25.6049 34.2891 25.6049C34.0457 25.6049 33.8337 25.3929 33.8337 25.1495C33.8337 24.9061 34.0457 24.702 34.297 24.702Z" fill="#DBB03D"/>
    </g>
    <defs>
        <clipPath id="clip0_73_82">
            <rect width="67" height="67" fill="white"/>
        </clipPath>
    </defs>
</svg>