<svg width="16" height="16" viewBox="0 0 8 8" fill="none" xmlns="http://www.w3.org/2000/svg">
<g id="Ebene_1" clip-path="url(#clip0_177_258)">
<path id="Vector" d="M0 4.29723C0.315579 4.32117 0.620506 4.31718 0.91478 4.37304C1.33555 4.45284 1.76298 4.53663 2.15979 4.68958C3.4474 5.187 4.04794 6.22707 3.88149 7.59698C3.83355 7.98933 3.83355 7.99199 3.43409 7.99864C2.10786 8.02125 1.14114 7.44137 0.537949 6.26298C0.227696 5.6565 0.0838881 5.00213 0 4.2959L0 4.29723Z" fill="#DBB03D"/>
<path id="Vector_2" d="M8.00009 4.08446C7.98012 4.38371 7.97213 4.66301 7.94017 4.93966C7.86827 5.57141 7.70715 6.17789 7.37826 6.72985C6.91354 7.5079 6.22379 7.92818 5.317 7.96941C5.0427 7.98138 4.76707 7.94414 4.49144 7.93483C4.36627 7.93084 4.31967 7.87232 4.31035 7.74996C4.21181 6.47714 4.64989 5.46235 5.75509 4.77606C6.42752 4.35844 7.17985 4.18288 8.00009 4.08313V4.08446Z" fill="#DBB03D"/>
<path id="Vector_3" d="M4.13431 5.14447C3.58571 5.12851 3.14496 4.9064 2.8134 4.46617C2.69756 4.31056 2.61101 4.14165 2.56174 3.95412C2.53378 3.84905 2.51514 3.74265 2.50848 3.63358C2.50581 3.58437 2.50049 3.53516 2.50049 3.48595C2.50049 3.27581 2.52712 3.06966 2.57239 2.86484C2.66028 2.47648 2.80408 2.10807 2.97585 1.75029C3.20755 1.2675 3.48451 0.809977 3.78411 0.365755C3.86134 0.250044 3.94257 0.136993 4.02113 0.0239425C4.0411 -0.00398769 4.05442 -0.00531771 4.07705 0.0212825C4.28744 0.275314 4.48451 0.541316 4.6696 0.813967C4.89463 1.14514 5.10235 1.48828 5.28078 1.84605C5.42193 2.12935 5.54443 2.41929 5.63364 2.72253C5.67759 2.87415 5.71354 3.0271 5.73484 3.18271C5.75348 3.31837 5.76813 3.45403 5.76014 3.59102C5.7415 3.94614 5.62432 4.26534 5.39796 4.54065C5.15695 4.83591 4.84802 5.02344 4.47652 5.10723C4.36334 5.1325 4.24882 5.14447 4.13165 5.14447H4.13431ZM4.05308 0.0651727C4.04643 0.0744828 4.0411 0.0811328 4.03711 0.0864529C3.92925 0.246054 3.8174 0.402995 3.71221 0.563926C3.43657 0.982879 3.18491 1.41513 2.97452 1.86999C2.82006 2.20516 2.6909 2.54963 2.61367 2.91139C2.58304 3.05636 2.56041 3.20266 2.55508 3.35162C2.55109 3.4394 2.55242 3.52718 2.55908 3.61496C2.56573 3.70009 2.57772 3.78654 2.59503 3.87033C2.63764 4.07648 2.72685 4.26268 2.85202 4.43159C3.15162 4.83325 3.55109 5.05403 4.05042 5.09127C4.20488 5.10324 4.35934 5.08728 4.51114 5.04871C4.98917 4.92236 5.33937 4.6404 5.56041 4.19884C5.66427 3.99136 5.71087 3.77058 5.71487 3.53915C5.71487 3.48196 5.71221 3.42477 5.70688 3.36758C5.69756 3.27315 5.68824 3.17872 5.67226 3.08562C5.63897 2.89011 5.58304 2.69992 5.51647 2.51239C5.3953 2.17058 5.23684 1.84605 5.05974 1.52951C4.79609 1.06135 4.49383 0.619786 4.16227 0.198174C4.12765 0.154283 4.0917 0.110393 4.05442 0.0638427L4.05308 0.0651727Z" fill="#DBB03D"/>
<path id="Vector_4" d="M5.59247 3.50456C5.59646 4.18686 5.11844 4.77073 4.45798 4.92235C4.32483 4.95294 4.19034 4.96491 4.05452 4.9556C3.69899 4.93299 3.38874 4.79999 3.13042 4.55394C2.96131 4.39301 2.83082 4.20548 2.75492 3.98337C2.71897 3.8783 2.695 3.77057 2.68435 3.66018C2.67902 3.60033 2.67236 3.54047 2.67236 3.48062C2.67236 3.27314 2.70033 3.06832 2.74826 2.86616C2.82416 2.55361 2.94001 2.25569 3.07583 1.96442C3.25559 1.58004 3.46863 1.21562 3.70166 0.860508C3.80818 0.699577 3.9187 0.541306 4.02789 0.381705C4.04919 0.349785 4.06384 0.349785 4.08781 0.379045C4.45399 0.828588 4.78155 1.30473 5.05852 1.81412C5.20632 2.08412 5.33415 2.36342 5.43268 2.65469C5.48994 2.82493 5.53654 2.99783 5.56184 3.17605C5.57649 3.28378 5.59114 3.5019 5.58848 3.50323L5.59247 3.50456ZM3.09314 3.35826C3.10112 3.43141 3.10512 3.50589 3.11577 3.57772C3.1424 3.73865 3.20632 3.88495 3.30752 4.01263C3.57383 4.34779 3.92003 4.49143 4.34214 4.41429C4.70965 4.34779 4.9693 4.12834 5.1171 3.7852C5.18768 3.62161 5.20765 3.44737 5.18901 3.26915C5.17836 3.16408 5.16105 3.06167 5.13575 2.95926C5.07183 2.70922 4.9693 2.47381 4.84946 2.24505C4.68168 1.92451 4.48195 1.6226 4.26224 1.33532C4.21697 1.27547 4.17037 1.21828 4.12243 1.15976C4.10379 1.13582 4.08381 1.13715 4.0665 1.15976C4.06384 1.16375 4.06118 1.16774 4.05852 1.17173C3.87077 1.4364 3.69367 1.70772 3.53788 1.99235C3.40073 2.24239 3.28089 2.50041 3.19567 2.77439C3.13708 2.96325 3.09846 3.1561 3.09314 3.3556V3.35826ZM4.05053 4.68162C4.03455 4.68162 4.02123 4.69492 4.02123 4.71088C4.02123 4.72551 4.03588 4.74147 4.05186 4.74014C4.06784 4.73881 4.07849 4.7295 4.07982 4.71221C4.07982 4.69625 4.0665 4.68295 4.05053 4.68295V4.68162ZM2.92669 3.66018C2.92669 3.64422 2.91338 3.63092 2.8974 3.63225C2.88009 3.63225 2.87077 3.64289 2.86943 3.66018C2.86943 3.67614 2.88275 3.68944 2.8974 3.69077C2.91338 3.69077 2.92669 3.67747 2.92669 3.66151V3.66018ZM4.70832 1.56275C4.69234 1.56275 4.67902 1.57738 4.68035 1.59334C4.68035 1.60797 4.695 1.62127 4.70965 1.62127C4.72429 1.62127 4.73894 1.60664 4.73894 1.59201C4.73894 1.57605 4.72429 1.56275 4.70832 1.56408V1.56275ZM5.38741 3.2758C5.40339 3.2758 5.4167 3.2625 5.4167 3.24654C5.4167 3.23058 5.40339 3.21728 5.38741 3.21728C5.37276 3.21728 5.35945 3.23058 5.35945 3.24521C5.35945 3.26117 5.37276 3.2758 5.38741 3.2758ZM4.89473 1.93117C4.90938 1.93117 4.92403 1.9152 4.9227 1.90057C4.9227 1.88461 4.90672 1.87264 4.89207 1.87264C4.87742 1.87264 4.86544 1.88594 4.86544 1.9019C4.86544 1.91786 4.88009 1.93117 4.89473 1.93117ZM4.63641 4.64305C4.65239 4.64305 4.66704 4.63108 4.66704 4.61645C4.66704 4.60182 4.65372 4.58719 4.63907 4.58586C4.62443 4.58586 4.60978 4.59916 4.60978 4.61512C4.60978 4.62975 4.62176 4.64305 4.63774 4.64438L4.63641 4.64305ZM3.59114 4.61645C3.60579 4.61645 3.62176 4.60182 3.6191 4.58586C3.61777 4.5699 3.60712 4.55926 3.58981 4.55793C3.5725 4.55793 3.56051 4.5699 3.56051 4.58719C3.56051 4.60315 3.57383 4.61645 3.58981 4.61645H3.59114ZM4.58049 1.36192C4.56584 1.36192 4.55119 1.37522 4.54986 1.39118C4.54986 1.40581 4.56318 1.42044 4.57915 1.42044C4.59513 1.42044 4.60712 1.40847 4.60845 1.39251C4.60845 1.37655 4.59646 1.36192 4.58049 1.36192ZM3.06384 2.60149C3.06384 2.58553 3.05186 2.57223 3.03588 2.5709C3.0199 2.5709 3.00658 2.5842 3.00658 2.60016C3.00658 2.61612 3.0199 2.62942 3.03588 2.62809C3.05186 2.62809 3.06384 2.61612 3.06384 2.60016V2.60149ZM4.86411 1.79816C4.86411 1.7822 4.85079 1.7689 4.83481 1.7689C4.8175 1.7689 4.80818 1.77954 4.80552 1.7955C4.80419 1.81013 4.81883 1.82476 4.83348 1.82609C4.84946 1.82609 4.86278 1.81279 4.86278 1.79683L4.86411 1.79816ZM5.00792 2.08545C4.99194 2.08545 4.97862 2.09875 4.97862 2.11471C4.97862 2.13067 4.99061 2.14264 5.00658 2.14264C5.02389 2.14264 5.03721 2.13067 5.03721 2.11471C5.03721 2.09875 5.02389 2.08545 5.00792 2.08545ZM2.96664 2.94862C2.96664 2.93399 2.95599 2.91936 2.94134 2.91803C2.92536 2.9167 2.91071 2.92734 2.90938 2.9433C2.90805 2.95926 2.92003 2.97389 2.93601 2.97522C2.95199 2.97522 2.96664 2.96458 2.96797 2.94862H2.96664ZM4.51125 1.26217C4.49527 1.26217 4.48062 1.2768 4.48195 1.29143C4.48328 1.30872 4.49393 1.31803 4.50991 1.31936C4.52456 1.32069 4.53921 1.30606 4.53921 1.2901C4.53921 1.27414 4.52722 1.26084 4.50991 1.26084L4.51125 1.26217ZM2.92403 3.1827C2.92403 3.16674 2.90938 3.15344 2.8934 3.15344C2.87875 3.15344 2.86677 3.16674 2.86544 3.1827C2.86544 3.19999 2.87742 3.21196 2.8934 3.21196C2.90938 3.21196 2.9227 3.19866 2.9227 3.1827H2.92403ZM5.34347 3.86899C5.35945 3.86899 5.37276 3.85569 5.37143 3.83973C5.37143 3.82244 5.35945 3.81313 5.34347 3.8118C5.32882 3.81047 5.31417 3.8251 5.31417 3.84106C5.31417 3.85702 5.32616 3.87032 5.34347 3.87032V3.86899ZM3.0918 4.10706C3.0918 4.0911 3.07716 4.0778 3.06251 4.07913C3.04653 4.07913 3.03455 4.09376 3.03455 4.10972C3.03455 4.12435 3.04786 4.13765 3.06251 4.13765C3.07849 4.13765 3.0918 4.12435 3.09047 4.10839L3.0918 4.10706ZM5.21431 4.16292C5.21431 4.14696 5.20099 4.13366 5.18501 4.13366C5.17037 4.13366 5.15572 4.14829 5.15572 4.16292C5.15572 4.17755 5.1677 4.19085 5.18368 4.19085C5.19966 4.19085 5.21298 4.17888 5.21431 4.16292ZM5.11311 4.28661C5.12909 4.28661 5.14107 4.27597 5.1424 4.26001C5.1424 4.24272 5.13175 4.22942 5.11577 4.22942C5.09979 4.22942 5.08515 4.24139 5.08515 4.25735C5.08515 4.27331 5.09713 4.28661 5.11311 4.28794V4.28661ZM3.1464 2.37539C3.1464 2.3581 3.13441 2.3448 3.11844 2.34613C3.10112 2.34613 3.0918 2.35544 3.08914 2.37273C3.08781 2.38869 3.10112 2.40199 3.1171 2.40332C3.13308 2.40332 3.1464 2.39135 3.1464 2.37539ZM5.37276 3.69476C5.35678 3.69476 5.34347 3.70806 5.34347 3.72402C5.34347 3.73998 5.35812 3.75461 5.37276 3.75328C5.38874 3.75195 5.39939 3.74264 5.40073 3.72535C5.40073 3.70806 5.38874 3.69609 5.37276 3.69609V3.69476ZM2.90672 3.4221C2.90672 3.40614 2.8934 3.39151 2.87742 3.39284C2.86144 3.39284 2.85079 3.40348 2.84946 3.42077C2.84946 3.43673 2.86144 3.45003 2.87742 3.45136C2.8934 3.45136 2.90672 3.43939 2.90672 3.4221ZM5.08781 2.21978C5.08781 2.20382 5.07449 2.19185 5.05718 2.19318C5.04254 2.19318 5.02922 2.20648 5.02922 2.22111C5.02922 2.23707 5.04387 2.25037 5.05852 2.25037C5.07449 2.25037 5.08781 2.23707 5.08648 2.22111L5.08781 2.21978ZM5.36344 3.60432C5.36344 3.62161 5.37543 3.63491 5.3914 3.63358C5.40738 3.63358 5.41804 3.62294 5.41937 3.60565C5.41937 3.58969 5.40738 3.57639 5.3914 3.57506C5.37543 3.57506 5.36211 3.58836 5.36211 3.60432H5.36344ZM5.31684 2.92069C5.33282 2.92069 5.34613 2.90739 5.34613 2.89143C5.34613 2.87547 5.33148 2.86217 5.31684 2.86217C5.30086 2.86217 5.28887 2.8768 5.29021 2.89276C5.29021 2.90872 5.30219 2.92069 5.31817 2.91936L5.31684 2.92069ZM3.10246 2.48711C3.10246 2.47115 3.08914 2.45785 3.07449 2.45652C3.05985 2.45652 3.0452 2.46982 3.0452 2.48578C3.0452 2.50174 3.05852 2.51504 3.07449 2.51504C3.08914 2.51504 3.10246 2.50174 3.10246 2.48711ZM3.13042 4.23341C3.14507 4.23341 3.15971 4.22011 3.16105 4.20415C3.16105 4.18952 3.14906 4.17622 3.13308 4.17622C3.11577 4.17622 3.10379 4.18553 3.10246 4.20282C3.10246 4.21878 3.11444 4.23208 3.13042 4.23341ZM4.94134 4.45552C4.95599 4.45552 4.97063 4.44222 4.97063 4.42626C4.97063 4.41163 4.95865 4.39833 4.94267 4.39833C4.92536 4.39833 4.91338 4.40897 4.91204 4.42493C4.91204 4.44089 4.92403 4.45419 4.94001 4.45552H4.94134ZM4.74294 4.53266C4.72563 4.53266 4.71364 4.54463 4.71364 4.56059C4.71364 4.57655 4.72829 4.58985 4.74294 4.58985C4.76025 4.58985 4.76957 4.57921 4.7709 4.56192C4.7709 4.54463 4.76025 4.53266 4.74294 4.53266ZM4.5219 4.68295C4.53788 4.68295 4.55119 4.66965 4.55119 4.65369C4.55119 4.63773 4.53654 4.62443 4.52057 4.62576C4.50459 4.62576 4.4926 4.64039 4.4926 4.65635C4.4926 4.67231 4.50592 4.68295 4.5219 4.68295ZM4.43401 4.68561C4.43401 4.66965 4.42203 4.65635 4.40605 4.65635C4.3914 4.65635 4.37809 4.66832 4.37676 4.68295C4.37676 4.69891 4.38741 4.71354 4.40339 4.71354C4.41937 4.71354 4.43268 4.70157 4.43401 4.68561ZM4.19567 4.71354C4.19567 4.69758 4.18368 4.68428 4.1677 4.68295C4.15172 4.68295 4.13841 4.69625 4.13841 4.71221C4.13841 4.7295 4.14773 4.73881 4.16504 4.74014C4.18235 4.74147 4.19433 4.7295 4.19567 4.71354ZM3.16105 2.23308C3.14507 2.23308 3.13175 2.24771 3.13308 2.26367C3.13308 2.27963 3.1464 2.2916 3.16371 2.29027C3.18102 2.29027 3.19034 2.27963 3.19034 2.26234C3.19034 2.24505 3.17836 2.23308 3.16105 2.23308ZM3.76557 1.2103C3.76557 1.19301 3.75359 1.18104 3.73628 1.18104C3.7203 1.18104 3.70698 1.19434 3.70698 1.2103C3.70698 1.22493 3.7203 1.23823 3.73495 1.23823C3.75093 1.23823 3.76424 1.22626 3.76424 1.2103H3.76557ZM4.97729 2.00565C4.97729 1.98969 4.96397 1.97639 4.948 1.97639C4.93069 1.97639 4.92136 1.98703 4.9187 2.00299C4.91737 2.01762 4.93202 2.03225 4.94666 2.03358C4.96264 2.03358 4.97596 2.02161 4.97596 2.00565H4.97729ZM4.7709 1.66383C4.75492 1.66383 4.7416 1.6758 4.7416 1.69176C4.7416 1.70772 4.75093 1.71969 4.76824 1.71969C4.78421 1.71969 4.79886 1.70772 4.79886 1.69176C4.79886 1.6758 4.78688 1.6625 4.7709 1.6625V1.66383ZM4.6697 1.48827C4.6697 1.47231 4.65772 1.45901 4.64174 1.45901C4.62709 1.45901 4.61244 1.47364 4.61244 1.48827C4.61244 1.50556 4.6231 1.51487 4.64041 1.5162C4.65638 1.5162 4.6697 1.50556 4.6697 1.48827ZM2.948 3.77589C2.948 3.7586 2.93601 3.74796 2.9187 3.74796C2.90139 3.74796 2.89207 3.7586 2.89074 3.77589C2.89074 3.79185 2.90405 3.80515 2.92003 3.80515C2.93601 3.80515 2.948 3.79185 2.948 3.77589ZM2.95599 3.86234C2.94001 3.86234 2.92669 3.87431 2.92669 3.8916C2.92669 3.90756 2.93867 3.91953 2.95465 3.91953C2.97063 3.91953 2.98395 3.90756 2.98528 3.8916C2.98528 3.87564 2.97196 3.86234 2.95599 3.86234ZM3.58182 1.41379C3.58182 1.42975 3.59513 1.44438 3.60978 1.44438C3.62443 1.44438 3.63907 1.42975 3.63907 1.41512C3.63907 1.39783 3.62842 1.38852 3.61244 1.38719C3.59646 1.38586 3.58315 1.39783 3.58315 1.41512L3.58182 1.41379ZM5.24626 4.08711C5.26224 4.08711 5.27556 4.07514 5.27423 4.05785C5.27423 4.04056 5.26358 4.03125 5.24626 4.02992C5.23029 4.02992 5.21697 4.04189 5.21697 4.05785C5.21697 4.07381 5.23029 4.08711 5.24626 4.08711ZM2.99194 2.82892C2.99194 2.81296 2.97995 2.79966 2.96397 2.79966C2.94933 2.79966 2.93468 2.81296 2.93468 2.82892C2.93468 2.84355 2.94666 2.85685 2.96264 2.85685C2.97995 2.85685 2.99327 2.84621 2.99327 2.83025L2.99194 2.82892ZM5.3701 3.15477C5.38608 3.15477 5.39939 3.14014 5.39806 3.12418C5.39673 3.10689 5.38608 3.09758 5.36877 3.09758C5.35279 3.09758 5.33947 3.11221 5.33947 3.12684C5.33947 3.1428 5.35412 3.1561 5.3701 3.15477ZM4.10512 0.716867C4.10512 0.702237 4.0918 0.687607 4.07716 0.686277C4.06251 0.686277 4.04786 0.699577 4.04786 0.715537C4.04786 0.730168 4.05985 0.743468 4.07449 0.744798C4.09047 0.744798 4.10512 0.732828 4.10512 0.716867ZM5.23295 2.55228C5.23295 2.53632 5.21963 2.52302 5.20366 2.52435C5.18634 2.52435 5.17702 2.53366 5.17569 2.55228C5.17569 2.56957 5.18768 2.58287 5.20366 2.58287C5.21963 2.58287 5.23295 2.56957 5.23295 2.55361V2.55228ZM3.23694 4.29858C3.23694 4.28262 3.2223 4.27065 3.20632 4.27065C3.19034 4.27065 3.17969 4.28262 3.17836 4.29858C3.17836 4.31454 3.19034 4.32784 3.20765 4.32784C3.22363 4.32784 3.23694 4.31454 3.23694 4.29858ZM5.06118 4.34646C5.06118 4.3305 5.04653 4.3172 5.03055 4.31853C5.01457 4.31853 5.00259 4.33316 5.00392 4.34912C5.00392 4.36641 5.01591 4.37572 5.03188 4.37572C5.04786 4.37572 5.06118 4.36242 5.06118 4.34646ZM3.29154 4.41296C3.30752 4.41296 3.32083 4.40099 3.32216 4.38503C3.32216 4.3704 3.30885 4.35577 3.29287 4.35577C3.27822 4.35577 3.26491 4.36774 3.26491 4.3837C3.26491 4.40099 3.27556 4.41429 3.29154 4.41429V4.41296ZM5.24626 2.63474C5.23162 2.63474 5.2183 2.64538 5.21697 2.66134C5.21697 2.67863 5.22762 2.69193 5.24227 2.69326C5.25692 2.69326 5.2729 2.68129 5.2729 2.66533C5.2729 2.64937 5.26091 2.63607 5.24493 2.63474H5.24626ZM3.38208 4.4901C3.39673 4.49143 3.41271 4.47946 3.41404 4.4635C3.41537 4.44887 3.40472 4.43557 3.38874 4.43291C3.37143 4.43025 3.35812 4.44089 3.35678 4.45685C3.35545 4.47414 3.3661 4.48744 3.38208 4.48877V4.4901ZM3.48328 4.50074C3.46863 4.50074 3.45532 4.51404 3.45532 4.52867C3.45532 4.54463 3.46997 4.55926 3.48595 4.55793C3.50326 4.5566 3.51258 4.54596 3.51258 4.52867C3.51258 4.51271 3.49926 4.50074 3.48328 4.50074ZM2.99593 2.68528C2.97995 2.68528 2.96664 2.69991 2.96797 2.71587C2.96797 2.7305 2.98395 2.74513 2.9986 2.7438C3.01457 2.7438 3.02656 2.72917 3.02523 2.71188C3.02523 2.69592 3.01191 2.68528 2.99593 2.68528ZM5.08115 2.32751C5.07982 2.34214 5.09047 2.35677 5.10512 2.35943C5.1211 2.36209 5.13708 2.34879 5.13841 2.33283C5.13974 2.3182 5.12776 2.3049 5.11311 2.30224C5.09713 2.30091 5.08248 2.31155 5.08115 2.32751ZM3.93734 0.883118C3.92136 0.883118 3.90938 0.896419 3.90938 0.913709C3.90938 0.929669 3.92136 0.941639 3.93734 0.941639C3.95332 0.941639 3.96664 0.928339 3.96664 0.912379C3.96664 0.896419 3.95199 0.883118 3.93734 0.883118ZM4.29953 1.02676C4.31551 1.02676 4.32749 1.01213 4.32749 0.996169C4.32749 0.980209 4.31417 0.968239 4.29686 0.969569C4.27955 0.969569 4.27023 0.980209 4.27023 0.997499C4.27023 1.01346 4.28355 1.02676 4.29953 1.02676ZM3.86943 1.04006C3.88541 1.04006 3.89873 1.02809 3.89873 1.01213C3.89873 0.996169 3.88541 0.982869 3.86943 0.982869C3.85212 0.982869 3.8428 0.993509 3.84147 1.0108C3.84147 1.02809 3.85212 1.04006 3.86943 1.04006ZM4.31817 4.70689C4.31817 4.69226 4.30485 4.67763 4.29021 4.6763C4.27423 4.6763 4.26091 4.6896 4.26091 4.70556C4.26091 4.72019 4.2729 4.73349 4.28887 4.73482C4.30485 4.73482 4.3195 4.72285 4.3195 4.70689H4.31817ZM4.87609 4.49941C4.87609 4.48345 4.86278 4.47015 4.8468 4.47148C4.82949 4.47148 4.82017 4.48212 4.81883 4.49941C4.81883 4.5167 4.83082 4.52867 4.8468 4.52867C4.86278 4.52867 4.87609 4.51537 4.87609 4.49941ZM3.83215 1.11188C3.83215 1.09459 3.81883 1.08395 3.80286 1.08395C3.78555 1.08395 3.77489 1.09592 3.77622 1.11321C3.77622 1.1305 3.78821 1.13981 3.80419 1.13981C3.82017 1.13981 3.83348 1.12651 3.83348 1.11055L3.83215 1.11188ZM3.03188 4.00332C3.03188 3.98736 3.01724 3.97406 3.00259 3.97406C2.98661 3.97406 2.97463 3.98869 2.97463 4.00465C2.97463 4.02061 2.98794 4.03258 3.00259 4.03125C3.0199 4.03125 3.03188 4.01928 3.03188 4.00199V4.00332ZM4.43934 1.22094C4.45665 1.22094 4.46864 1.20897 4.46864 1.19301C4.46864 1.17705 4.45532 1.16375 4.43934 1.16375C4.42203 1.16375 4.41271 1.17306 4.41138 1.19168C4.41138 1.20897 4.42203 1.22094 4.43934 1.22094ZM5.37409 3.01113C5.37409 2.99517 5.36078 2.98187 5.3448 2.98187C5.32882 2.98187 5.31684 2.99384 5.31684 3.01113C5.31684 3.02842 5.32749 3.03773 5.34347 3.03773C5.36078 3.03773 5.37276 3.02576 5.37276 3.0098L5.37409 3.01113ZM2.90938 3.0364C2.8934 3.0364 2.88142 3.0497 2.88142 3.06699C2.88142 3.08295 2.89473 3.09492 2.91204 3.09359C2.92802 3.09359 2.93867 3.08029 2.93867 3.06566C2.93867 3.0497 2.92536 3.0364 2.90938 3.03773V3.0364ZM3.70166 1.3167C3.70166 1.30074 3.68967 1.28744 3.67369 1.28611C3.65772 1.28611 3.6444 1.29941 3.6444 1.31537C3.6444 1.33266 3.65372 1.3433 3.67103 1.3433C3.68834 1.3433 3.70033 1.33266 3.70166 1.3167ZM3.5472 1.49226C3.53122 1.49226 3.5179 1.50689 3.51923 1.52152C3.51923 1.53748 3.53255 1.54945 3.54986 1.54812C3.56717 1.54812 3.57649 1.53748 3.57649 1.52019C3.57649 1.5029 3.56451 1.49093 3.54853 1.49093L3.5472 1.49226ZM3.51657 1.62659C3.51657 1.61063 3.50459 1.59733 3.48861 1.59733C3.47263 1.59733 3.46065 1.60797 3.46065 1.62393C3.46065 1.64122 3.4713 1.65319 3.48728 1.65452C3.50326 1.65452 3.51657 1.64255 3.5179 1.62659H3.51657ZM2.90938 3.30506C2.90938 3.28777 2.8974 3.2758 2.88009 3.2758C2.86278 3.2758 2.85079 3.28777 2.85212 3.30506C2.85212 3.31969 2.86544 3.33299 2.88009 3.33299C2.8974 3.33299 2.90938 3.32102 2.90938 3.30506ZM3.42603 1.7024C3.41271 1.7024 3.40206 1.71038 3.40073 1.729C3.40073 1.74629 3.41138 1.75959 3.42736 1.75959C3.44334 1.75959 3.45665 1.74762 3.45798 1.73166C3.45798 1.7157 3.446 1.7024 3.42603 1.7024ZM3.39939 1.83673C3.39939 1.81944 3.38741 1.80747 3.3701 1.80747C3.35412 1.80747 3.34081 1.8221 3.34214 1.83806C3.34347 1.85535 3.35279 1.86466 3.3701 1.86466C3.38741 1.86466 3.39939 1.85402 3.39939 1.83673ZM5.3954 3.39816C5.41271 3.39816 5.42469 3.38752 5.42469 3.37023C5.42469 3.35427 5.41271 3.34097 5.3954 3.34097C5.38075 3.34097 5.36744 3.35427 5.36744 3.3689C5.36744 3.38486 5.37942 3.39816 5.3954 3.39816ZM3.21164 2.13067C3.19567 2.13067 3.18368 2.14397 3.18368 2.15993C3.18368 2.17722 3.19567 2.18786 3.21298 2.18786C3.22895 2.18786 3.23961 2.17589 3.23961 2.15993C3.23961 2.14397 3.22629 2.13067 3.21031 2.13067H3.21164ZM3.31817 1.9724C3.33282 1.9724 3.34746 1.95777 3.34613 1.94181C3.34613 1.92452 3.33415 1.91521 3.31817 1.91387C3.30219 1.91387 3.28887 1.92584 3.29021 1.94314C3.29021 1.9591 3.30352 1.9724 3.3195 1.9724H3.31817ZM2.91071 3.54712C2.91071 3.52983 2.90006 3.51786 2.88275 3.51653C2.86677 3.51653 2.85346 3.52983 2.85346 3.54579C2.85346 3.56175 2.86544 3.57373 2.88009 3.57373C2.89873 3.57373 2.90938 3.56441 2.90938 3.54712H2.91071ZM3.29154 2.05087C3.29154 2.03358 3.27955 2.02161 3.26358 2.02161C3.24893 2.02161 3.23428 2.03624 3.23561 2.05087C3.23694 2.06683 3.24626 2.07747 3.26358 2.07747C3.28089 2.07747 3.29287 2.06683 3.29287 2.04954L3.29154 2.05087ZM5.15705 2.47248C5.17436 2.47248 5.18634 2.46051 5.18501 2.44455C5.18501 2.42726 5.17436 2.41795 5.15838 2.41662C5.1424 2.41529 5.12909 2.42859 5.12909 2.44455C5.12909 2.46051 5.14107 2.47381 5.15705 2.47381V2.47248ZM4.36877 1.07065C4.35146 1.07065 4.33947 1.08262 4.33947 1.09858C4.33947 1.11587 4.35013 1.12518 4.36744 1.12651C4.38342 1.12784 4.39673 1.11454 4.39673 1.09858C4.39673 1.08129 4.38608 1.07065 4.36877 1.07065ZM5.28222 2.75444C5.26491 2.75444 5.25425 2.76508 5.25292 2.78237C5.25292 2.79966 5.26358 2.80897 5.27955 2.8103C5.2942 2.81163 5.30885 2.79833 5.31018 2.78237C5.31018 2.76641 5.2982 2.75311 5.28222 2.75311V2.75444ZM4.17836 0.811298C4.17836 0.796668 4.16371 0.782038 4.14773 0.782038C4.13175 0.782038 4.11977 0.795338 4.1211 0.812628C4.1211 0.828588 4.13308 0.840558 4.14906 0.840558C4.16504 0.840558 4.17836 0.827258 4.17836 0.811298ZM4.00658 0.790018C3.98927 0.790018 3.97596 0.799328 3.97463 0.815288C3.9733 0.829918 3.98661 0.845878 4.00126 0.847208C4.01591 0.847208 4.03055 0.836568 4.03188 0.821938C4.03322 0.804648 4.02389 0.791348 4.00658 0.790018ZM5.29686 3.98337C5.31417 3.98337 5.32616 3.97273 5.32616 3.95544C5.32616 3.93948 5.31284 3.92485 5.29686 3.92618C5.28089 3.92618 5.27023 3.93682 5.2689 3.95411C5.2689 3.9714 5.27955 3.98337 5.29686 3.98337ZM5.39806 3.51786C5.41404 3.51786 5.42736 3.50456 5.42736 3.4886C5.42736 3.47131 5.41537 3.46067 5.39806 3.46067C5.38075 3.46067 5.37143 3.47131 5.3701 3.4886C5.3701 3.50589 5.38208 3.51786 5.39806 3.51786ZM3.92802 4.72817C3.94533 4.72817 3.95732 4.7162 3.95599 4.69891C3.95599 4.68162 3.94533 4.67231 3.92802 4.67098C3.91204 4.67098 3.89873 4.68295 3.89873 4.69891C3.89873 4.7162 3.91071 4.72817 3.92802 4.72684V4.72817ZM3.69633 4.66566C3.71231 4.66566 3.72563 4.65236 3.72563 4.6364C3.72563 4.62044 3.71098 4.60714 3.69633 4.60847C3.68035 4.6098 3.6697 4.61778 3.6697 4.6364C3.6697 4.65369 3.68035 4.66566 3.69766 4.66566H3.69633ZM4.2223 0.934989C4.23828 0.934989 4.25159 0.921689 4.25159 0.905729C4.25159 0.891098 4.23828 0.877798 4.22363 0.877798C4.20765 0.877798 4.19433 0.888438 4.193 0.905729C4.193 0.921689 4.20499 0.934989 4.22097 0.934989H4.2223ZM3.80951 4.64704C3.7922 4.64704 3.78022 4.65901 3.78155 4.6763C3.78155 4.69359 3.7922 4.7029 3.80951 4.70423C3.82549 4.70423 3.83881 4.69226 3.83881 4.6763C3.83881 4.66034 3.82682 4.64704 3.80951 4.64837V4.64704Z" fill="#DBB03D"/>
<path id="Vector_5" d="M4.09847 1.22095C4.16239 1.30474 4.22497 1.38454 4.28622 1.467C4.49794 1.75428 4.68968 2.0522 4.84814 2.37273C4.94801 2.57623 5.03322 2.78504 5.08782 3.00582C5.11046 3.09892 5.1251 3.19202 5.13309 3.28778C5.14774 3.4527 5.13043 3.6123 5.06518 3.76392C4.92404 4.08844 4.67903 4.29327 4.33149 4.35977C4.0026 4.42228 3.71232 4.33184 3.46864 4.10308C3.32484 3.96874 3.22364 3.80648 3.18502 3.61097C3.17171 3.54447 3.16372 3.47797 3.16105 3.41014C3.1504 3.21729 3.18635 3.03109 3.23828 2.84622C3.31552 2.57357 3.43269 2.31687 3.56718 2.06816C3.72164 1.78088 3.89741 1.5069 4.08516 1.2409C4.08915 1.23558 4.09314 1.23026 4.10113 1.22095H4.09847ZM4.09448 1.37789C4.08782 1.38587 4.08382 1.38986 4.08116 1.39385C3.89341 1.65852 3.71765 1.92984 3.56718 2.21712C3.44601 2.44987 3.34081 2.68928 3.27557 2.94464C3.23296 3.11488 3.21032 3.28645 3.22763 3.46201C3.24361 3.62161 3.29554 3.76791 3.39408 3.89692C3.60579 4.17623 3.88542 4.30524 4.23562 4.27731C4.35014 4.268 4.45799 4.23741 4.55786 4.18155C4.89341 3.99534 5.06119 3.71072 5.0532 3.32635C5.05187 3.23458 5.03722 3.14414 5.01725 3.0537C4.97064 2.8409 4.89075 2.64007 4.79488 2.44588C4.63642 2.12535 4.44068 1.82743 4.22497 1.54414C4.18369 1.48961 4.13975 1.43641 4.09448 1.37922V1.37789Z" fill="#DBB03D"/>
<path id="Vector_6" d="M4.14137 4.0326C3.78984 4.03526 3.51687 3.77591 3.45162 3.49926C3.42765 3.40084 3.42499 3.30109 3.43564 3.20001C3.45961 2.97125 3.5395 2.76111 3.63804 2.55629C3.76187 2.2996 3.91367 2.0602 4.07878 1.82877C4.09743 1.80217 4.11207 1.80217 4.13338 1.82744C4.33178 2.07084 4.50622 2.32886 4.64736 2.60949C4.72193 2.75712 4.78318 2.91007 4.82046 3.07233C4.8391 3.15612 4.85375 3.24257 4.85109 3.32902C4.8431 3.61232 4.71261 3.82113 4.46494 3.95679C4.36507 4.01132 4.25721 4.03526 4.1427 4.03393L4.14137 4.0326ZM4.13338 3.1508C4.21993 3.1508 4.28784 3.0843 4.28784 3.00051C4.28784 2.91672 4.21993 2.84889 4.13604 2.84756C4.05349 2.84756 3.98291 2.91672 3.98291 2.99918C3.98291 3.08297 4.04949 3.15213 4.13338 3.15213V3.1508ZM4.13604 3.31572C4.01886 3.31572 3.92566 3.40882 3.92566 3.52453C3.92566 3.63892 4.0202 3.73335 4.13471 3.73335C4.25056 3.73335 4.34376 3.64025 4.34376 3.52586C4.34376 3.41015 4.25056 3.31705 4.13604 3.31705V3.31572ZM4.13604 2.4858C4.07878 2.4858 4.03484 2.52969 4.03484 2.58555C4.03484 2.64008 4.07878 2.6853 4.13471 2.6853C4.19064 2.6853 4.23724 2.64141 4.23724 2.58555C4.23724 2.53102 4.19197 2.4858 4.13737 2.4858H4.13604ZM4.17865 2.25305C4.17865 2.22512 4.16001 2.20517 4.13205 2.20517C4.10675 2.20517 4.08544 2.22512 4.08544 2.25172C4.08544 2.27699 4.10675 2.30093 4.13338 2.2996C4.15868 2.2996 4.17865 2.27965 4.17998 2.25305H4.17865Z" fill="#DBB03D"/>
<path id="Vector_7" d="M4.13601 3.33832C4.22522 3.33832 4.32109 3.40748 4.31976 3.52452C4.31976 3.64688 4.21723 3.71205 4.12802 3.70939C4.03081 3.70673 3.94693 3.62161 3.94826 3.52319C3.94959 3.41945 4.03215 3.33832 4.13601 3.33832Z" fill="#DBB03D"/>
<path id="Vector_8" d="M4.13569 2.5097C4.1783 2.5097 4.21292 2.54428 4.21292 2.58685C4.21292 2.62808 4.17564 2.66266 4.13436 2.66266C4.09308 2.66266 4.05713 2.62675 4.05713 2.58552C4.05713 2.54428 4.09308 2.5097 4.13569 2.5097Z" fill="#DBB03D"/>
</g>
<defs>
<clipPath id="clip0_177_258">
<rect width="16" height="16" fill="#ffffff"/>
</clipPath>
</defs>
</svg>
